<svg width="150" height="150" viewBox="0 0 150 150" fill="none" xmlns="http://www.w3.org/2000/svg">
<path d="M130.822 85.065C132.525 81.8325 133.5 78.1575 133.5 74.25C133.5 64.3185 127.262 55.8645 118.499 52.533C118.499 52.5225 118.5 52.512 118.5 52.5C118.5 35.103 104.397 21 87 21C72.324 21 60.0285 31.0515 56.5305 44.6355C54.3165 43.908 51.957 43.5 49.5 43.5C37.962 43.5 28.4655 52.1895 27.165 63.378C19.359 65.0295 13.5 71.9535 13.5 80.25C13.5 89.7765 21.2235 97.5 30.75 97.5C31.0155 97.5 31.278 97.482 31.539 97.467C31.533 97.7295 31.5 97.986 31.5 98.25C31.5 115.233 45.267 129 62.25 129C71.9055 129 80.5125 124.542 86.151 117.579C89.418 120.917 93.96 123 99 123C105.975 123 112.011 119.025 114.999 113.223C116.577 113.726 118.256 114 120 114C129.112 114 136.5 106.612 136.5 97.5C136.5 92.5335 134.295 88.0905 130.822 85.065Z" fill="#C7EDE6"/>
<path d="M106.5 108H97.875C94.1475 109.125 91.125 106.102 91.125 102.375C91.125 98.8755 93.798 96.0315 97.2075 95.6925C97.1745 95.421 97.125 95.1555 97.125 94.875C97.125 91.1475 100.148 88.125 103.875 88.125C106.032 88.125 107.93 89.154 109.166 90.729C109.376 86.775 112.618 83.625 116.625 83.625C120.766 83.625 124.125 86.9835 124.125 91.125C124.125 91.794 124.01 92.43 123.845 93.048C124.808 91.8825 126.244 91.125 127.875 91.125C130.547 91.125 132.726 93.1275 133.058 95.7075C133.329 95.6745 133.594 95.625 133.875 95.625C137.602 95.625 140.625 98.6475 140.625 102.375C140.625 106.102 137.602 109.125 133.875 108H119.625H111V109.5H106.5V108Z" fill="#FDFCEF"/>
<path d="M116.25 82.5C120.799 82.5 124.5 86.2005 124.5 90.75C124.5 90.774 124.5 90.7965 124.5 90.8205C125.403 90.288 126.435 90 127.5 90C130.246 90 132.616 91.8915 133.287 94.5075C133.357 94.503 133.428 94.5 133.5 94.5C138.148 94.5 141.823 98.751 140.839 103.57C140.119 107.097 136.806 109.5 133.206 109.5H111.187C110.773 109.5 110.437 109.164 110.437 108.75C110.437 108.336 110.773 108 111.187 108H133.264C136.144 108 138.795 106.077 139.371 103.255C140.158 99.4005 137.218 96 133.5 96C133.324 96 133.155 96.0255 132.985 96.048L132.774 96.0765C132.742 96.081 132.712 96.0825 132.681 96.0825C132.312 96.0825 131.988 95.805 131.938 95.427C131.652 93.1875 129.744 91.5 127.5 91.5C126.172 91.5 124.915 92.1015 124.048 93.15C123.901 93.327 123.687 93.423 123.469 93.423C123.352 93.423 123.235 93.396 123.127 93.339C122.814 93.1785 122.656 92.82 122.746 92.4795C122.986 91.5795 123.049 90.876 122.967 90.156C122.607 86.9655 120.028 84.2925 116.829 84.024C113.002 83.7015 109.741 86.616 109.54 90.393C109.524 90.705 109.315 90.9735 109.017 91.068C108.942 91.092 108.865 91.104 108.789 91.104C108.564 91.104 108.345 91.0005 108.201 90.816C107.043 89.3445 105.331 88.5 103.5 88.5C100.191 88.5 97.5 91.191 97.5 94.5C97.5 94.6755 97.5255 94.845 97.548 95.0145L97.5765 95.226C97.6005 95.427 97.5435 95.628 97.4175 95.7855C97.2915 95.943 97.107 96.0435 96.9075 96.063C93.3795 96.414 90.8445 99.7065 91.6515 103.36C92.2635 106.14 94.9125 108 97.7595 108H106.687C107.101 108 107.437 108.336 107.437 108.75C107.437 109.164 107.101 109.5 106.687 109.5H97.7805C94.08 109.5 90.7185 106.944 90.108 103.293C89.415 99.1485 92.124 95.463 96.0045 94.683C96.0015 94.623 96 94.5615 96 94.5C96 90.3645 99.3645 87 103.5 87C105.264 87 106.939 87.624 108.274 88.746C109.171 85.14 112.417 82.5 116.25 82.5Z" fill="#472B29"/>
<path d="M118.875 93.375C120.979 93.375 122.788 94.8735 123.244 96.8865C123.795 96.5535 124.423 96.375 125.062 96.375C126.865 96.375 128.359 97.7205 128.592 99.477C128.896 99.4095 129.186 99.375 129.469 99.375C131.763 99.375 133.686 101.175 133.846 103.473C133.86 103.68 133.705 103.859 133.498 103.874C133.489 103.874 133.48 103.874 133.471 103.874C133.276 103.874 133.111 103.722 133.098 103.525C132.964 101.619 131.371 100.124 129.469 100.124C129.126 100.124 128.764 100.186 128.362 100.314C128.329 100.324 128.295 100.329 128.262 100.329C128.179 100.329 128.097 100.299 128.028 100.248C127.932 100.178 127.875 100.055 127.875 99.9345C127.875 98.3835 126.613 97.122 125.062 97.122C124.392 97.122 123.735 97.374 123.216 97.8315C123.145 97.893 123.057 97.926 122.968 97.926C122.92 97.926 122.874 97.917 122.829 97.8975C122.697 97.845 122.607 97.722 122.596 97.5795C122.443 95.6415 120.81 94.122 118.878 94.122C118.566 94.122 118.24 94.173 117.855 94.2825C117.82 94.293 117.784 94.2975 117.75 94.2975C117.586 94.2975 117.439 94.188 117.391 94.0245C117.334 93.825 117.45 93.618 117.649 93.561C118.099 93.435 118.491 93.375 118.875 93.375ZM98.0505 95.625C100.039 95.625 101.812 96.9705 102.361 98.898C102.418 99.0975 102.303 99.3045 102.103 99.3615C102.069 99.372 102.034 99.3765 102.001 99.3765C101.838 99.3765 101.688 99.2685 101.641 99.1035C101.184 97.497 99.708 96.3765 98.052 96.3765C97.8765 96.3765 97.707 96.3975 97.539 96.42C97.521 96.423 97.5045 96.4245 97.4865 96.4245C97.305 96.4245 97.143 96.2865 97.1175 96.099C97.089 95.8935 97.233 95.7045 97.4385 95.6775C97.638 95.649 97.842 95.625 98.0505 95.625Z" fill="#472B29"/>
<path d="M125.107 72H110.25C109.836 72 109.5 71.664 109.5 71.25C109.5 70.836 109.836 70.5 110.25 70.5H125.107C125.521 70.5 125.857 70.836 125.857 71.25C125.857 71.664 125.523 72 125.107 72ZM129.75 72H128.25C127.836 72 127.5 71.664 127.5 71.25C127.5 70.836 127.836 70.5 128.25 70.5H129.75C130.164 70.5 130.5 70.836 130.5 71.25C130.5 71.664 130.166 72 129.75 72ZM137.236 75H123.75C123.336 75 123 74.664 123 74.25C123 73.836 123.336 73.5 123.75 73.5H137.236C137.65 73.5 137.986 73.836 137.986 74.25C137.986 74.664 137.65 75 137.236 75ZM120.75 75H119.25C118.836 75 118.5 74.664 118.5 74.25C118.5 73.836 118.836 73.5 119.25 73.5H120.75C121.164 73.5 121.5 73.836 121.5 74.25C121.5 74.664 121.166 75 120.75 75ZM116.25 75H113.25C112.836 75 112.5 74.664 112.5 74.25C112.5 73.836 112.836 73.5 113.25 73.5H116.25C116.664 73.5 117 73.836 117 74.25C117 74.664 116.666 75 116.25 75ZM125.25 78H122.25C121.836 78 121.5 77.664 121.5 77.25C121.5 76.836 121.836 76.5 122.25 76.5H125.25C125.664 76.5 126 76.836 126 77.25C126 77.664 125.664 78 125.25 78ZM129.75 64.5C129.484 64.5 128.516 64.5 128.25 64.5C127.836 64.5 127.5 64.836 127.5 65.25C127.5 65.664 127.836 66 128.25 66C128.516 66 129.484 66 129.75 66C130.164 66 130.5 65.664 130.5 65.25C130.5 64.836 130.164 64.5 129.75 64.5ZM129.75 67.5C129.484 67.5 122.516 67.5 122.25 67.5C121.836 67.5 121.5 67.836 121.5 68.25C121.5 68.664 121.836 69 122.25 69C122.516 69 129.484 69 129.75 69C130.164 69 130.5 68.664 130.5 68.25C130.5 67.836 130.164 67.5 129.75 67.5ZM137.25 70.5C136.984 70.5 133.016 70.5 132.75 70.5C132.336 70.5 132 70.836 132 71.25C132 71.664 132.336 72 132.75 72C133.016 72 136.984 72 137.25 72C137.664 72 138 71.664 138 71.25C138 70.836 137.664 70.5 137.25 70.5ZM54 120H39C38.586 120 38.25 119.664 38.25 119.25C38.25 118.836 38.586 118.5 39 118.5H54C54.414 118.5 54.75 118.836 54.75 119.25C54.75 119.664 54.414 120 54 120ZM60 120H57C56.586 120 56.25 119.664 56.25 119.25C56.25 118.836 56.586 118.5 57 118.5H60C60.414 118.5 60.75 118.836 60.75 119.25C60.75 119.664 60.414 120 60 120ZM67.5 123H52.5C52.086 123 51.75 122.664 51.75 122.25C51.75 121.836 52.086 121.5 52.5 121.5H67.5C67.914 121.5 68.25 121.836 68.25 122.25C68.25 122.664 67.9155 123 67.5 123ZM49.5 123H48C47.586 123 47.25 122.664 47.25 122.25C47.25 121.836 47.586 121.5 48 121.5H49.5C49.914 121.5 50.25 121.836 50.25 122.25C50.25 122.664 49.914 123 49.5 123ZM44.8125 123H42C41.586 123 41.25 122.664 41.25 122.25C41.25 121.836 41.586 121.5 42 121.5H44.8125C45.2265 121.5 45.5625 121.836 45.5625 122.25C45.5625 122.664 45.2265 123 44.8125 123ZM58.5 117H51C50.586 117 50.25 116.664 50.25 116.25C50.25 115.836 50.586 115.5 51 115.5H58.5C58.914 115.5 59.25 115.836 59.25 116.25C59.25 116.664 58.9155 117 58.5 117ZM54 126H51C50.586 126 50.25 125.664 50.25 125.25C50.25 124.836 50.586 124.5 51 124.5H54C54.414 124.5 54.75 124.836 54.75 125.25C54.75 125.664 54.414 126 54 126Z" fill="white"/>
<path d="M40.5 55.5C40.5 55.5 37.7745 55.5 34.875 55.5C31.9755 55.5 29.625 53.1495 29.625 50.25C29.625 47.5785 31.6275 45.399 34.2075 45.0675C34.1655 44.799 34.125 44.5305 34.125 44.25C34.125 41.3505 36.4755 39 39.375 39C40.923 39 42.3 39.6825 43.26 40.7475C43.8375 38.0355 46.242 36 49.125 36C52.4385 36 55.125 38.6865 55.125 42C55.125 42.2865 55.08 42.561 55.041 42.837C55.683 42.321 56.487 42 57.375 42C59.217 42 60.7425 43.3305 61.0575 45.0825C61.326 45.0405 61.5945 45 61.875 45C64.7745 45 67.125 47.3505 67.125 50.25C67.125 53.1495 64.7745 55.5 61.875 55.5C58.9755 55.5 51 55.5 51 55.5V57H40.5V55.5Z" fill="#FDFCEF"/>
<path d="M37.5 48.75C37.707 48.75 37.875 48.582 37.875 48.375C37.875 46.5405 36.3825 45.048 34.548 45.048C34.497 45.0615 33.4425 45.0465 32.682 45.252C32.4825 45.306 32.364 45.5115 32.418 45.711C32.472 45.912 32.6775 46.0305 32.877 45.975C33.543 45.795 34.527 45.795 34.5465 45.798C35.9685 45.798 37.125 46.9545 37.125 48.375C37.125 48.582 37.293 48.75 37.5 48.75ZM47.25 55.5C47.051 55.5 46.8603 55.579 46.7196 55.7197C46.579 55.8603 46.5 56.0511 46.5 56.25C46.5 56.4489 46.579 56.6397 46.7196 56.7803C46.8603 56.921 47.051 57 47.25 57C47.4489 57 47.6396 56.921 47.7803 56.7803C47.9209 56.6397 48 56.4489 48 56.25C48 56.0511 47.9209 55.8603 47.7803 55.7197C47.6396 55.579 47.4489 55.5 47.25 55.5Z" fill="#472B29"/>
<path d="M29.127 52.7355C29.8845 55.3335 32.433 57 35.139 57H40.125C40.539 57 40.875 56.664 40.875 56.25C40.875 55.836 40.539 55.5 40.125 55.5H35.0325C33.168 55.5 31.38 54.4485 30.7035 52.7115C29.571 49.803 31.5075 46.92 34.302 46.5615C34.503 46.5345 34.6845 46.4295 34.806 46.2675C34.9275 46.1055 34.9785 45.9015 34.947 45.702C34.9125 45.471 34.875 45.24 34.875 45C34.875 42.519 36.894 40.5 39.375 40.5C40.65 40.5 41.832 41.0325 42.7035 42C42.891 42.2085 43.185 42.297 43.4535 42.222C43.7265 42.1485 43.935 41.9295 43.9935 41.6535C44.505 39.2475 46.6635 37.5 49.125 37.5C52.02 37.5 54.375 39.855 54.375 42.75C54.375 42.9645 54.3435 43.17 54.3135 43.377C54.27 43.6815 54.408 44.034 54.6765 44.187C54.945 44.34 55.2705 44.364 55.5105 44.172C56.058 43.7325 56.7015 43.5 57.375 43.5C58.824 43.5 60.063 44.5365 60.3195 45.966C60.3915 46.3665 60.7635 46.635 61.173 46.5735C61.404 46.5375 61.635 46.5 61.875 46.5C64.83 46.5 67.1295 49.362 66.144 52.461C65.55 54.327 63.69 55.5 61.731 55.5H50.625C50.211 55.5 49.875 55.836 49.875 56.25C49.875 56.664 50.211 57 50.625 57H61.6395C64.5195 57 67.17 55.077 67.746 52.2555C68.5335 48.4005 65.5935 45 61.875 45C61.7865 45 61.701 45.003 61.614 45.009C60.993 43.23 59.3085 42 57.375 42C56.8515 42 56.3415 42.0915 55.8585 42.27C55.611 38.7705 52.686 36 49.125 36C46.3785 36 43.926 37.6905 42.8955 40.161C41.8755 39.414 40.6425 39 39.375 39C36.066 39 33.375 41.691 33.375 45C33.375 45.072 33.3765 45.1425 33.381 45.213C30.228 46.023 28.125 49.3035 29.127 52.7355Z" fill="#472B29"/>
<path d="M43.125 55.5C43.3635 55.5 44.3865 55.5 44.625 55.5C45.039 55.5 45.375 55.836 45.375 56.25C45.375 56.664 45.039 57 44.625 57C44.3865 57 43.3635 57 43.125 57C42.711 57 42.375 56.664 42.375 56.25C42.375 55.836 42.711 55.5 43.125 55.5Z" fill="#472B29"/>
<path d="M95.1105 69.711C94.476 69.711 93.843 69.6705 93.2205 69.591C93.1365 67.866 92.1585 66.4455 90.5595 65.769L90.363 65.685H90.33C89.8875 65.529 89.427 65.451 88.9605 65.451C87.9045 65.451 86.8815 65.853 86.0445 66.5925C85.0605 65.8305 84.183 64.956 83.424 63.984C84.948 62.259 84.714 60.546 84.219 59.379C83.5275 57.774 82.224 56.8785 80.433 56.772C80.2725 55.548 80.2695 54.306 80.4255 53.0775C82.287 52.977 83.6205 52.0395 84.297 50.349C84.747 49.182 84.924 47.4945 83.403 45.828C84.1605 44.844 85.035 43.965 86.0085 43.2045C86.892 44.025 87.867 44.4435 88.9125 44.4435C89.481 44.4435 90.069 44.316 90.66 44.0655C91.836 43.5765 93.204 42.507 93.2895 40.179C93.888 40.104 94.5015 40.0665 95.112 40.0665C95.73 40.0665 96.357 40.104 96.984 40.1835C97.074 42.711 98.622 43.776 99.954 44.223C100.422 44.379 100.89 44.4585 101.346 44.4585C102.41 44.4585 103.391 44.0415 104.271 43.218C105.245 43.974 106.115 44.8515 106.872 45.8385C105.279 47.5545 105.491 49.2945 105.978 50.4855C106.671 52.155 108.009 53.0655 109.86 53.1345C109.991 54.066 109.976 55.866 109.833 56.829C107.451 56.9475 106.392 58.365 105.923 59.562C105.474 60.705 105.29 62.3775 106.779 64.056C106.011 65.028 105.128 65.8995 104.145 66.6495C103.26 65.865 102.294 65.4615 101.273 65.4615C100.611 65.4615 99.9285 65.634 99.243 65.9745C97.8015 66.7065 97.0245 67.926 96.9225 69.603C96.3195 69.6735 95.7105 69.711 95.1105 69.711ZM95.115 51.777C93.402 51.777 92.01 53.1705 92.01 54.882C92.01 56.5935 93.4035 57.987 95.115 57.987C96.8265 57.987 98.22 56.5935 98.22 54.882C98.22 53.1705 96.828 51.777 95.115 51.777Z" fill="#A3A3CD"/>
<path d="M95.112 41.1135C95.415 41.1135 95.7195 41.124 96.03 41.145C96.378 43.1235 97.617 44.544 99.6195 45.216C100.195 45.4095 100.776 45.507 101.346 45.507C102.121 45.507 103.173 45.321 104.26 44.5695C104.707 44.9625 105.129 45.3885 105.523 45.843C104.47 47.3655 104.281 49.113 105.009 50.8905C105.736 52.6425 107.091 53.7465 108.886 54.078C108.909 54.6435 108.904 55.3185 108.873 55.8825C107.025 56.235 105.652 57.3735 104.943 59.1765C104.283 60.864 104.46 62.5395 105.435 64.02C105.028 64.4775 104.592 64.908 104.127 65.307C103.236 64.71 102.28 64.4085 101.271 64.4085C100.446 64.4085 99.606 64.617 98.7585 65.0385C97.6545 65.5995 96.384 66.6645 95.9865 68.631C95.694 68.649 95.4 68.658 95.1105 68.658C94.788 68.658 94.4655 68.646 94.146 68.625C93.777 66.912 92.631 65.5035 90.966 64.7985L90.573 64.632H90.4935C89.994 64.476 89.478 64.3965 88.9545 64.3965C87.9285 64.3965 86.934 64.6965 86.0655 65.253C85.6005 64.848 85.164 64.4145 84.759 63.954C85.761 62.436 85.9155 60.7035 85.176 58.9515C84.45 57.2655 83.13 56.19 81.3885 55.8345C81.3465 55.23 81.345 54.6225 81.3855 54.0075C83.1975 53.649 84.5535 52.5135 85.275 50.709C85.938 48.9915 85.743 47.301 84.744 45.834C85.137 45.3825 85.56 44.9565 86.016 44.5545C86.9085 45.174 87.876 45.486 88.9065 45.486C89.616 45.486 90.342 45.3315 91.05 45.0315C92.8095 44.2995 93.906 42.9435 94.233 41.1375C94.53 41.124 94.821 41.1135 95.112 41.1135ZM95.115 59.037C97.4055 59.037 99.27 57.1725 99.27 54.882C99.27 52.5915 97.4055 50.727 95.115 50.727C92.8245 50.727 90.96 52.5915 90.96 54.882C90.96 57.1725 92.8245 59.037 95.115 59.037ZM95.112 39.0135C94.272 39.0135 93.438 39.081 92.6145 39.2145C92.3865 39.2535 92.2275 39.453 92.238 39.681C92.3175 41.388 91.662 42.51 90.252 43.0965C89.7885 43.293 89.343 43.3905 88.914 43.3905C88.017 43.3905 87.186 42.963 86.4 42.1035C86.3085 42.0075 86.1855 41.9565 86.064 41.9565C85.9725 41.9565 85.881 41.985 85.8045 42.045C84.435 43.038 83.2335 44.2485 82.251 45.6195C82.122 45.798 82.1415 46.056 82.311 46.215C83.532 47.3475 83.859 48.5685 83.3235 49.9575C82.767 51.348 81.7095 52.035 80.0895 52.035C80.0325 52.035 79.9755 52.0335 79.917 52.032C79.911 52.032 79.905 52.032 79.8975 52.032C79.677 52.032 79.4895 52.197 79.4595 52.419C79.191 54.0675 79.191 55.755 79.47 57.432C79.509 57.651 79.698 57.8085 79.917 57.8085C79.965 57.807 80.0115 57.807 80.058 57.807C81.6465 57.807 82.683 58.4625 83.253 59.784C83.8485 61.194 83.541 62.445 82.329 63.606C82.17 63.7545 82.14 64.0125 82.269 64.1925C83.262 65.562 84.4635 66.7545 85.8225 67.737C85.842 67.7565 85.872 67.767 85.902 67.776C85.9545 67.8 86.013 67.8105 86.073 67.8105C86.1915 67.8105 86.316 67.767 86.409 67.6875C86.448 67.6575 86.478 67.6275 86.499 67.608C87.1965 66.8835 88.0755 66.4995 88.9605 66.4995C89.349 66.4995 89.7375 66.573 90.1125 66.7245C90.123 66.7245 90.1425 66.735 90.1515 66.735C91.4415 67.281 92.196 68.463 92.1765 69.9015C92.1765 70.17 92.2755 70.5075 92.772 70.587C93.549 70.704 94.3305 70.761 95.1135 70.761C95.8605 70.761 96.6075 70.7085 97.35 70.6065C97.41 70.587 97.479 70.5765 97.539 70.5675L97.599 70.557C97.8075 70.518 97.9665 70.3185 97.9665 70.0995C97.9365 68.5605 98.502 67.5285 99.714 66.912C100.252 66.645 100.773 66.51 101.275 66.51C102.153 66.51 102.979 66.9195 103.774 67.746C103.863 67.8345 103.98 67.881 104.098 67.881C104.19 67.881 104.283 67.8525 104.361 67.797C105.741 66.8145 106.942 65.6235 107.935 64.272C108.064 64.0935 108.045 63.8355 107.875 63.6765C106.684 62.535 106.366 61.314 106.902 59.943C107.452 58.5435 108.528 57.867 110.166 57.867C110.212 57.867 110.26 57.867 110.307 57.8685C110.314 57.8685 110.32 57.8685 110.328 57.8685C110.527 57.8685 110.697 57.732 110.754 57.5505C111.072 56.508 111.091 53.322 110.773 52.3875C110.716 52.206 110.538 52.0785 110.347 52.0785C110.34 52.0785 110.334 52.0785 110.326 52.0785C110.245 52.0815 110.167 52.083 110.089 52.083C108.543 52.083 107.509 51.4245 106.951 50.082C106.366 48.6525 106.693 47.4015 107.964 46.23C108.133 46.071 108.162 45.813 108.033 45.6345C107.04 44.244 105.838 43.0335 104.469 42.051C104.389 41.9925 104.296 41.964 104.206 41.964C104.082 41.964 103.959 42.018 103.873 42.12C103.108 42.972 102.262 43.404 101.347 43.404C101.004 43.404 100.651 43.344 100.29 43.2225C98.691 42.687 97.9575 41.535 98.037 39.678C98.0475 39.4395 97.878 39.2415 97.65 39.2115C96.798 39.081 95.952 39.0135 95.112 39.0135ZM95.115 56.937C93.978 56.937 93.06 56.019 93.06 54.882C93.06 53.745 93.978 52.827 95.115 52.827C96.252 52.827 97.17 53.745 97.17 54.882C97.17 56.019 96.252 56.937 95.115 56.937Z" fill="#472B29"/>
<path d="M95.1164 47.4135C91.0004 47.4135 87.6479 50.7645 87.6479 54.882C87.6479 58.9995 90.9989 62.3505 95.1164 62.3505C99.2324 62.3505 102.585 58.9995 102.585 54.882C102.585 53.337 102.112 51.9 101.305 50.7075C100.998 50.253 100.641 49.833 100.242 49.4565C99.762 49.002 99.2204 48.6105 98.6339 48.2955C98.1044 48.012 97.5374 47.79 96.9434 47.64C96.3569 47.4915 95.7464 47.4135 95.1164 47.4135ZM95.1164 51.4455C97.0064 51.4455 98.553 52.992 98.553 54.882C98.553 56.772 97.0064 58.3185 95.1164 58.3185C93.2264 58.3185 91.6799 56.772 91.6799 54.882C91.6799 52.992 93.2264 51.4455 95.1164 51.4455Z" fill="#7777AB"/>
<path d="M58.0065 108.269C56.0055 107.774 53.982 106.952 52.086 105.837C53.079 103.286 52.6485 101.084 50.808 99.279C49.6515 98.163 48.339 97.599 46.902 97.599C46.0845 97.599 45.2145 97.785 44.3115 98.1525C43.1955 96.297 42.3555 94.308 41.8275 92.2545C44.4045 91.1445 45.672 89.2545 45.612 86.6265C45.552 84.093 44.2545 82.296 41.754 81.282C42.2655 79.1835 43.0725 77.193 44.16 75.3375C45.0945 75.726 45.99 75.9225 46.8285 75.9225C48.3195 75.9225 49.665 75.3195 50.823 74.13C52.6455 72.2865 53.01 70.056 51.909 67.506C53.742 66.396 55.7265 65.5635 57.825 65.019C58.884 67.614 60.723 68.9355 63.288 68.9355C63.4695 68.9355 63.654 68.928 63.8445 68.9145C66.207 68.736 67.938 67.3815 68.874 64.9905C70.9095 65.4975 72.9195 66.3255 74.7975 67.4475C73.713 70.0455 74.106 72.2895 75.9645 74.124C77.124 75.27 78.45 75.849 79.905 75.849C80.7525 75.849 81.6555 75.6465 82.593 75.2505C83.385 76.3965 84.75 79.707 85.0245 81.171C82.4295 82.2795 81.1455 84.1725 81.1935 86.805C81.2535 89.3025 82.533 91.098 84.9975 92.1525C84.474 94.2225 83.649 96.2085 82.539 98.0565C81.639 97.707 80.772 97.527 79.962 97.527C78.318 97.527 76.872 98.244 75.6645 99.6555C74.1645 101.394 73.8795 103.452 74.817 105.774C72.9225 106.898 70.9425 107.715 68.8755 108.242C67.9455 105.897 65.8815 104.478 63.387 104.478H63.1395L63.1005 104.495C60.843 104.603 58.914 106.029 58.0065 108.269ZM63.378 81.435C60.519 81.435 58.1925 83.7615 58.1925 86.6205C58.1925 89.4795 60.519 91.806 63.378 91.806C66.237 91.806 68.5635 89.4795 68.5635 86.6205C68.5635 83.7615 66.237 81.435 63.378 81.435Z" fill="#A3A3CD"/>
<path d="M69.45 66.2445C70.851 66.6555 72.207 67.215 73.5075 67.9215C72.489 71.208 73.827 73.4895 75.2265 74.8725C76.59 76.218 78.1635 76.9005 79.9035 76.9005C80.6205 76.9005 81.3645 76.7805 82.1325 76.5375C82.6935 77.607 83.43 79.371 83.7975 80.595C80.7465 82.239 80.106 84.837 80.142 86.8365C80.187 88.7025 80.877 91.134 83.7525 92.7135C83.3325 94.1295 82.7625 95.4945 82.0545 96.789C81.333 96.5835 80.6325 96.48 79.9605 96.48C77.9955 96.48 76.281 97.32 74.8725 98.9685C73.7415 100.279 72.6765 102.399 73.5345 105.301C72.2355 106.005 70.869 106.572 69.4515 106.995C68.199 104.774 65.9505 103.43 63.384 103.43L62.82 103.44L62.769 103.465C60.51 103.665 58.563 104.975 57.4365 107.016C56.0235 106.605 54.654 106.046 53.3535 105.35C54.267 102.128 52.923 99.888 51.528 98.52C50.1765 97.212 48.618 96.549 46.8975 96.549C46.215 96.549 45.507 96.657 44.784 96.8715C44.0685 95.5695 43.497 94.215 43.0725 92.8155C46.08 91.1685 46.704 88.584 46.659 86.601C46.614 84.6975 45.9105 82.2345 42.99 80.7C43.3935 79.2915 43.9455 77.928 44.6385 76.6275C45.3885 76.857 46.1205 76.9725 46.827 76.9725C48.612 76.9725 50.2095 76.263 51.564 74.8725C52.9395 73.479 54.243 71.196 53.2035 67.968C54.48 67.266 55.8315 66.699 57.2475 66.27C58.839 69.3045 61.353 69.984 63.285 69.984C63.4905 69.984 63.7005 69.9765 63.9255 69.96C66.363 69.777 68.28 68.4855 69.45 66.2445ZM63.378 92.856C66.816 92.856 69.6135 90.0585 69.6135 86.6205C69.6135 83.1825 66.816 80.385 63.378 80.385C59.94 80.385 57.1425 83.1825 57.1425 86.6205C57.1425 90.0585 59.94 92.856 63.378 92.856ZM68.616 63.8775C68.34 63.8775 68.0865 64.053 67.9995 64.3305C67.2345 66.522 65.8185 67.7115 63.771 67.866C63.606 67.878 63.4455 67.884 63.288 67.884C61.0725 67.884 59.5725 66.7245 58.6845 64.3305C58.581 64.0635 58.3335 63.897 58.0635 63.897C58.0095 63.897 57.954 63.903 57.9 63.918C55.44 64.518 53.145 65.49 51.066 66.792C50.7765 66.9675 50.673 67.329 50.8185 67.6395C51.894 69.903 51.6555 71.796 50.0745 73.398C49.113 74.385 48.0375 74.874 46.8315 74.874C46.041 74.874 45.1935 74.664 44.2845 74.247C44.193 74.205 44.0985 74.184 44.004 74.184C43.7775 74.184 43.5615 74.301 43.437 74.505C42.144 76.635 41.2035 78.951 40.656 81.369C40.5735 81.69 40.749 82.0305 41.07 82.1445C43.3755 82.9815 44.5125 84.4605 44.5635 86.652C44.6145 88.9365 43.4985 90.4875 41.1315 91.407C40.821 91.521 40.6455 91.8615 40.728 92.1825C41.307 94.581 42.279 96.8655 43.5915 98.985C43.725 99.1845 43.9425 99.3 44.166 99.3C44.2545 99.3 44.3445 99.282 44.43 99.243C45.3135 98.847 46.1355 98.649 46.9035 98.649C48.0765 98.649 49.125 99.111 50.0745 100.029C51.6765 101.601 51.9765 103.461 50.994 105.735C50.859 106.035 50.973 106.386 51.252 106.562C53.382 107.855 55.677 108.795 58.086 109.353C58.128 109.364 58.1685 109.363 58.2105 109.363C58.4685 109.363 58.7385 109.188 58.851 108.95C58.893 108.888 58.9125 108.836 58.9335 108.785C59.688 106.8 61.374 105.56 63.327 105.539C63.348 105.528 63.369 105.528 63.3885 105.528C65.4555 105.528 67.1415 106.707 67.9365 108.671C68.0655 108.971 68.3145 109.307 68.802 109.307C68.9025 109.307 69.0135 109.291 69.135 109.26C71.3265 108.702 73.4145 107.834 75.348 106.686C75.4305 106.635 75.513 106.572 75.5865 106.532L75.6585 106.481C75.927 106.305 76.0305 105.952 75.906 105.654C74.9865 103.587 75.162 101.85 76.464 100.341C77.4705 99.1635 78.627 98.5815 79.962 98.5815C80.727 98.5815 81.5505 98.772 82.4385 99.153C82.5195 99.1875 82.605 99.2025 82.6905 99.2025C82.917 99.2025 83.1375 99.087 83.2665 98.883C84.579 96.7635 85.53 94.4685 86.0985 92.07C86.1705 91.749 86.0055 91.419 85.695 91.305C83.421 90.426 82.2945 88.9485 82.242 86.787C82.2 84.513 83.328 82.9515 85.695 82.032C85.974 81.9285 86.139 81.639 86.109 81.3495C85.9545 79.7475 84.1545 75.4155 83.2035 74.3295C83.0745 74.187 82.8915 74.1105 82.7085 74.1105C82.6125 74.1105 82.5165 74.1315 82.428 74.1735C81.528 74.5905 80.688 74.8005 79.902 74.8005C78.7215 74.8005 77.6625 74.328 76.6995 73.3785C75.087 71.787 74.829 69.885 75.8835 67.5795C76.0275 67.269 75.9255 66.9075 75.636 66.732C73.4955 65.409 71.19 64.458 68.772 63.9C68.721 63.8835 68.6685 63.8775 68.616 63.8775ZM63.378 90.756C61.0935 90.756 59.2425 88.905 59.2425 86.6205C59.2425 84.336 61.0935 82.485 63.378 82.485C65.6625 82.485 67.5135 84.336 67.5135 86.6205C67.5135 88.905 65.6625 90.756 63.378 90.756Z" fill="#472B29"/>
<path d="M63.378 73.551C56.172 73.551 50.3085 79.413 50.3085 86.6205C50.3085 93.828 56.1705 99.69 63.378 99.69C70.5855 99.69 76.4475 93.828 76.4475 86.6205C76.4475 79.413 70.584 73.551 63.378 73.551ZM63.378 95.022C58.7475 95.022 54.9765 91.251 54.9765 86.6205C54.9765 81.99 58.7475 78.219 63.378 78.219C68.0085 78.219 71.7795 81.99 71.7795 86.6205C71.7795 91.251 68.007 95.022 63.378 95.022Z" fill="#7777AB"/>
<path d="M64.125 100.043C63.927 100.043 63.762 99.888 63.75 99.69C63.738 99.4815 63.897 99.3045 64.1025 99.2925C66.528 99.1545 68.85 98.3265 70.821 96.897C70.986 96.7755 71.2215 96.8115 71.3445 96.981C71.466 97.1475 71.43 97.383 71.2605 97.5045C69.174 99.0195 66.7155 99.897 64.1475 100.043C64.14 100.043 64.1325 100.043 64.125 100.043ZM62.2005 100.013C62.19 100.013 62.178 100.013 62.1675 100.011C56.34 99.486 51.5565 95.298 50.2635 89.5905C50.2185 89.388 50.346 89.187 50.5455 89.1405C50.763 89.097 50.9505 89.223 50.9955 89.424C52.215 94.815 56.7315 98.7675 62.2335 99.264C62.4405 99.2835 62.592 99.465 62.574 99.6705C62.556 99.8655 62.3925 100.013 62.2005 100.013ZM72.8745 95.9655C72.7815 95.9655 72.69 95.9325 72.6165 95.8635C72.465 95.721 72.4605 95.484 72.6015 95.3325C73.3875 94.5 74.0625 93.5625 74.601 92.5485C74.697 92.364 74.928 92.2995 75.108 92.3925C75.291 92.4885 75.36 92.7165 75.264 92.8995C74.6925 93.975 73.9815 94.9665 73.1475 95.8485C73.074 95.925 72.9735 95.9655 72.8745 95.9655ZM63.378 95.397C58.5375 95.397 54.6 91.4595 54.6 86.6205C54.6 81.78 58.5375 77.8425 63.378 77.8425C68.217 77.8425 72.1545 81.78 72.1545 86.6205C72.1545 91.4595 68.217 95.397 63.378 95.397ZM63.378 78.594C58.9515 78.594 55.35 82.194 55.35 86.622C55.35 91.047 58.95 94.6485 63.378 94.6485C67.803 94.6485 71.4045 91.0485 71.4045 86.622C71.4045 82.194 67.803 78.594 63.378 78.594ZM75.8715 90.834C75.8355 90.834 75.798 90.828 75.762 90.8175C75.564 90.756 75.453 90.546 75.513 90.348C75.8835 89.145 76.071 87.8895 76.071 86.6205C76.071 82.1325 73.6575 77.9325 69.7725 75.657C69.594 75.5535 69.534 75.3225 69.6375 75.144C69.7425 74.9625 69.9735 74.904 70.1505 75.009C74.265 77.4165 76.821 81.8655 76.821 86.619C76.821 87.963 76.6215 89.292 76.23 90.567C76.1805 90.729 76.032 90.834 75.8715 90.834ZM50.3085 86.9955C50.1015 86.9955 49.9335 86.8275 49.9335 86.6205C49.9335 79.2075 55.965 73.176 63.378 73.176C64.239 73.176 65.1045 73.26 65.9535 73.4235C66.156 73.4625 66.2895 73.659 66.249 73.863C66.21 74.0655 66.021 74.208 65.8095 74.1585C65.01 74.004 64.191 73.926 63.378 73.926C56.379 73.926 50.6835 79.6215 50.6835 86.6205C50.6835 86.8275 50.5155 86.9955 50.3085 86.9955ZM68.7 75.06C68.649 75.06 68.5965 75.0495 68.5455 75.0285C68.118 74.835 67.6725 74.6655 67.224 74.523C67.0275 74.46 66.918 74.2485 66.981 74.052C67.044 73.8555 67.254 73.746 67.452 73.809C67.926 73.9605 68.3985 74.1405 68.853 74.343C69.042 74.4285 69.126 74.6505 69.042 74.8395C68.979 74.9775 68.844 75.06 68.7 75.06Z" fill="#472B29"/>
<path d="M76.3725 87.4275C76.347 87.4275 76.3214 87.4245 76.2944 87.42L71.6625 86.445C71.46 86.4015 71.3295 86.2035 71.373 85.9995C71.4165 85.797 71.607 85.6755 71.8185 85.71L76.4504 86.685C76.6529 86.7285 76.7835 86.9265 76.74 87.1305C76.7025 87.306 76.5465 87.4275 76.3725 87.4275ZM71.3445 84.2415C71.1375 84.2415 70.9695 84.075 70.9695 83.868C70.9695 83.6595 71.136 83.4915 71.343 83.4915L76.0754 83.475C76.2824 83.475 76.4519 83.6415 76.4519 83.8485C76.4519 84.057 76.2855 84.225 76.0785 84.225L71.3445 84.2415ZM102.33 56.658C102.294 56.658 102.255 56.652 102.217 56.64L97.9004 55.281C97.7024 55.2195 97.5929 55.008 97.6559 54.8115C97.7174 54.615 97.923 54.504 98.1255 54.567L102.442 55.926C102.64 55.9875 102.75 56.199 102.687 56.3955C102.637 56.556 102.489 56.658 102.33 56.658ZM92.787 62.337C92.7195 62.337 92.6505 62.319 92.5905 62.2815C92.4135 62.1735 92.3595 61.941 92.4675 61.7655L95.145 57.426C95.2545 57.2475 95.4884 57.1935 95.6609 57.303C95.8379 57.411 95.892 57.6435 95.784 57.819L93.1065 62.1585C93.0345 62.274 92.913 62.337 92.787 62.337ZM89.9805 60.33C89.8665 60.33 89.754 60.2775 89.6805 60.1785C89.556 60.012 89.5905 59.7765 89.757 59.6535L93.4485 56.91C93.6165 56.7885 93.8504 56.8215 93.9734 56.988C94.0979 57.1545 94.0635 57.39 93.897 57.513L90.2055 60.2565C90.138 60.306 90.0585 60.33 89.9805 60.33ZM92.8095 53.5725C92.634 53.5725 92.4779 53.4495 92.4419 53.2725L91.449 48.372C91.4085 48.168 91.5405 47.97 91.7415 47.9295C91.9425 47.8905 92.142 48.021 92.184 48.222L93.177 53.1225C93.2175 53.3265 93.0855 53.5245 92.8845 53.565C92.859 53.5695 92.835 53.5725 92.8095 53.5725ZM94.6919 52.3755C94.6799 52.3755 94.6665 52.3755 94.6545 52.374C94.449 52.353 94.299 52.1685 94.3185 51.963L94.7685 47.4825C94.791 47.277 94.947 47.127 95.1795 47.1465C95.385 47.1675 95.5349 47.352 95.5154 47.5575L95.0655 52.038C95.0445 52.2315 94.8824 52.3755 94.6919 52.3755ZM62.913 78.627C62.886 78.627 62.859 78.624 62.8305 78.618C62.628 78.5715 62.5005 78.3705 62.547 78.1695L63.591 73.5525C63.636 73.3515 63.831 73.2195 64.0395 73.269C64.242 73.3155 64.3695 73.5165 64.323 73.7175L63.279 78.3345C63.24 78.5085 63.0855 78.627 62.913 78.627ZM58.308 80.0745C58.122 80.0745 57.9615 79.9365 57.936 79.749L57.312 75.057C57.285 74.8515 57.429 74.6625 57.6345 74.6355C57.8565 74.6145 58.0289 74.7525 58.0559 74.958L58.6799 79.65C58.7069 79.8555 58.5629 80.0445 58.3574 80.0715C58.3409 80.073 58.3245 80.0745 58.308 80.0745ZM60.57 79.002C60.5685 79.002 60.5684 79.002 60.5669 79.002C60.3599 79.0005 60.1935 78.8325 60.195 78.624L60.228 73.8915C60.2295 73.6845 60.396 73.5195 60.603 73.5195C60.6045 73.5195 60.6044 73.5195 60.6059 73.5195C60.8129 73.521 60.9795 73.689 60.978 73.8975L60.945 78.63C60.9435 78.837 60.777 79.002 60.57 79.002ZM70.092 81.891C69.9015 81.891 69.7395 81.747 69.7185 81.555C69.6975 81.348 69.8475 81.1635 70.053 81.1425L74.7615 80.6475C74.9745 80.6265 75.153 80.7765 75.174 80.982C75.195 81.189 75.045 81.3735 74.8395 81.3945L70.131 81.8895C70.1175 81.891 70.104 81.891 70.092 81.891ZM59.7285 99.459C59.667 99.459 59.604 99.444 59.547 99.4125C59.3655 99.3135 59.3009 99.084 59.3999 98.9025L61.6904 94.761C61.7909 94.581 62.0219 94.5135 62.2004 94.614C62.3819 94.713 62.4464 94.9425 62.3474 95.124L60.0569 99.2655C59.9879 99.3885 59.8605 99.459 59.7285 99.459ZM56.235 97.7175C56.118 97.7175 56.0024 97.662 55.9289 97.56C55.8089 97.3905 55.8495 97.155 56.019 97.0365L59.8845 94.3065C60.054 94.1865 60.2894 94.2285 60.4079 94.3965C60.5279 94.566 60.4875 94.8015 60.318 94.92L56.4524 97.65C56.3864 97.695 56.31 97.7175 56.235 97.7175ZM53.6865 95.6445C53.5485 95.6445 53.415 95.568 53.349 95.4345C53.2575 95.25 53.334 95.025 53.52 94.932L57.7634 92.8365C57.9464 92.745 58.173 92.82 58.266 93.0075C58.3575 93.192 58.281 93.417 58.095 93.51L53.8515 95.6055C53.799 95.6325 53.742 95.6445 53.6865 95.6445Z" fill="#472B29"/>
<path d="M52.0364 93.33C51.8804 93.33 51.7334 93.231 51.6809 93.0735C51.6149 92.877 51.7214 92.6655 51.9179 92.5995L56.4089 91.1025C56.6039 91.0395 56.8169 91.143 56.8829 91.3395C56.9489 91.536 56.8424 91.7475 56.6459 91.8135L52.1549 93.3105C52.1159 93.324 52.0769 93.33 52.0364 93.33Z" fill="#472B29"/>
<path d="M95.1164 62.724C90.7904 62.724 87.2729 59.205 87.2729 54.8805C87.2729 54.6735 87.4409 54.5055 87.6479 54.5055C87.8549 54.5055 88.0229 54.6735 88.0229 54.8805C88.0229 58.791 91.2059 61.974 95.1164 61.974C96.2339 61.974 97.3034 61.7205 98.2979 61.218C98.4824 61.1295 98.7074 61.1985 98.8019 61.3845C98.8949 61.569 98.8215 61.794 98.6355 61.8885C97.551 62.436 96.3359 62.724 95.1164 62.724ZM100.228 60.6945C100.129 60.6945 100.029 60.6555 99.954 60.576C99.813 60.4245 99.8205 60.1875 99.972 60.045C101.392 58.7085 102.208 56.826 102.208 54.882C102.208 53.16 101.578 51.495 100.435 50.1975C100.297 50.0415 100.314 49.8045 100.468 49.668C100.621 49.53 100.86 49.545 100.998 49.701C102.262 51.135 102.958 52.9755 102.958 54.8805C102.958 57.0315 102.057 59.112 100.485 60.5925C100.413 60.66 100.321 60.6945 100.228 60.6945ZM95.1164 58.692C93.0149 58.692 91.3049 56.982 91.3049 54.882C91.3049 52.7805 93.0149 51.0705 95.1164 51.0705C97.2164 51.0705 98.9264 52.7805 98.9264 54.882C98.9264 56.982 97.2179 58.692 95.1164 58.692ZM95.1164 51.8205C93.4289 51.8205 92.0549 53.1945 92.0549 54.882C92.0549 56.5695 93.4289 57.942 95.1164 57.942C96.8039 57.942 98.1764 56.5695 98.1764 54.882C98.1764 53.1945 96.8039 51.8205 95.1164 51.8205ZM88.7595 51.342C88.692 51.342 88.623 51.324 88.5615 51.2865C88.386 51.177 88.3319 50.946 88.4399 50.769C89.8844 48.4335 92.3804 47.04 95.1164 47.04C95.7719 47.04 96.423 47.1225 97.056 47.283C97.257 47.334 97.3785 47.538 97.3275 47.739C97.278 47.94 97.071 48.0585 96.8715 48.0105C96.2985 47.8635 95.7089 47.7915 95.1164 47.7915C92.6429 47.7915 90.3855 49.053 89.079 51.1665C89.007 51.279 88.8855 51.342 88.7595 51.342ZM99.6929 49.3605C99.6119 49.3605 99.5324 49.3335 99.4634 49.281C99.0749 48.9795 98.6609 48.72 98.2304 48.5085C98.0444 48.417 97.9665 48.1935 98.058 48.0075C98.148 47.82 98.373 47.7405 98.559 47.835C99.036 48.0675 99.4964 48.357 99.9239 48.6885C100.087 48.816 100.117 49.0515 99.99 49.215C99.915 49.311 99.8039 49.3605 99.6929 49.3605Z" fill="#472B29"/>
</svg>
