<svg width="119" height="59" viewBox="0 0 119 59" fill="none" xmlns="http://www.w3.org/2000/svg">
<rect width="119" height="59" rx="9" fill="#4D47C3"/>
<path d="M40.68 22.1V23.96H34.78V28.06H39.38V29.92H34.78V36H32.5V22.1H40.68ZM43.953 23.52C43.5396 23.52 43.193 23.38 42.913 23.1C42.633 22.82 42.493 22.4733 42.493 22.06C42.493 21.6467 42.633 21.3 42.913 21.02C43.193 20.74 43.5396 20.6 43.953 20.6C44.353 20.6 44.693 20.74 44.973 21.02C45.253 21.3 45.393 21.6467 45.393 22.06C45.393 22.4733 45.253 22.82 44.973 23.1C44.693 23.38 44.353 23.52 43.953 23.52ZM45.073 24.98V36H42.793V24.98H45.073ZM53.6264 24.8C54.4931 24.8 55.2664 24.98 55.9464 25.34C56.6397 25.7 57.1797 26.2333 57.5664 26.94C57.9531 27.6467 58.1464 28.5 58.1464 29.5V36H55.8864V29.84C55.8864 28.8533 55.6397 28.1 55.1464 27.58C54.6531 27.0467 53.9797 26.78 53.1264 26.78C52.2731 26.78 51.5931 27.0467 51.0864 27.58C50.5931 28.1 50.3464 28.8533 50.3464 29.84V36H48.0664V24.98H50.3464V26.24C50.7197 25.7867 51.1931 25.4333 51.7664 25.18C52.3531 24.9267 52.9731 24.8 53.6264 24.8ZM62.2147 23.52C61.8014 23.52 61.4547 23.38 61.1747 23.1C60.8947 22.82 60.7547 22.4733 60.7547 22.06C60.7547 21.6467 60.8947 21.3 61.1747 21.02C61.4547 20.74 61.8014 20.6 62.2147 20.6C62.6147 20.6 62.9547 20.74 63.2347 21.02C63.5147 21.3 63.6547 21.6467 63.6547 22.06C63.6547 22.4733 63.5147 22.82 63.2347 23.1C62.9547 23.38 62.6147 23.52 62.2147 23.52ZM63.3347 24.98V36H61.0547V24.98H63.3347ZM70.3281 36.18C69.4615 36.18 68.6815 36.0267 67.9881 35.72C67.3081 35.4 66.7681 34.9733 66.3681 34.44C65.9681 33.8933 65.7548 33.2867 65.7281 32.62H68.0881C68.1281 33.0867 68.3481 33.48 68.7481 33.8C69.1615 34.1067 69.6748 34.26 70.2881 34.26C70.9281 34.26 71.4215 34.14 71.7681 33.9C72.1281 33.6467 72.3081 33.3267 72.3081 32.94C72.3081 32.5267 72.1081 32.22 71.7081 32.02C71.3215 31.82 70.7015 31.6 69.8481 31.36C69.0215 31.1333 68.3481 30.9133 67.8281 30.7C67.3081 30.4867 66.8548 30.16 66.4681 29.72C66.0948 29.28 65.9081 28.7 65.9081 27.98C65.9081 27.3933 66.0815 26.86 66.4281 26.38C66.7748 25.8867 67.2681 25.5 67.9081 25.22C68.5615 24.94 69.3081 24.8 70.1481 24.8C71.4015 24.8 72.4081 25.12 73.1681 25.76C73.9415 26.3867 74.3548 27.2467 74.4081 28.34H72.1281C72.0881 27.8467 71.8881 27.4533 71.5281 27.16C71.1681 26.8667 70.6815 26.72 70.0681 26.72C69.4681 26.72 69.0081 26.8333 68.6881 27.06C68.3681 27.2867 68.2081 27.5867 68.2081 27.96C68.2081 28.2533 68.3148 28.5 68.5281 28.7C68.7415 28.9 69.0015 29.06 69.3081 29.18C69.6148 29.2867 70.0681 29.4267 70.6681 29.6C71.4681 29.8133 72.1215 30.0333 72.6281 30.26C73.1481 30.4733 73.5948 30.7933 73.9681 31.22C74.3415 31.6467 74.5348 32.2133 74.5481 32.92C74.5481 33.5467 74.3748 34.1067 74.0281 34.6C73.6815 35.0933 73.1881 35.48 72.5481 35.76C71.9215 36.04 71.1815 36.18 70.3281 36.18ZM82.7117 24.8C83.5517 24.8 84.2984 24.98 84.9517 25.34C85.6184 25.7 86.1384 26.2333 86.5117 26.94C86.8984 27.6467 87.0917 28.5 87.0917 29.5V36H84.8317V29.84C84.8317 28.8533 84.5851 28.1 84.0917 27.58C83.5984 27.0467 82.9251 26.78 82.0717 26.78C81.2184 26.78 80.5384 27.0467 80.0317 27.58C79.5384 28.1 79.2917 28.8533 79.2917 29.84V36H77.0117V21.2H79.2917V26.26C79.6784 25.7933 80.1651 25.4333 80.7517 25.18C81.3517 24.9267 82.0051 24.8 82.7117 24.8Z" fill="white"/>
</svg>
