<svg width="148" height="148" viewBox="0 0 148 148" fill="none" xmlns="http://www.w3.org/2000/svg">
<g filter="url(#filter0_d_77_113)">
<rect x="4" width="140" height="140" rx="30" fill="#B5B5B5"/>
<g filter="url(#filter1_d_77_113)">
<path d="M40.7992 116.154C39.7872 116.154 38.8778 115.978 38.0712 115.626C37.2792 115.259 36.6558 114.761 36.2012 114.13C35.7465 113.485 35.5118 112.744 35.4972 111.908H37.6312C37.7045 112.627 37.9978 113.235 38.5112 113.734C39.0392 114.218 39.8018 114.46 40.7992 114.46C41.7525 114.46 42.5005 114.225 43.0432 113.756C43.6005 113.272 43.8792 112.656 43.8792 111.908C43.8792 111.321 43.7178 110.845 43.3952 110.478C43.0725 110.111 42.6692 109.833 42.1852 109.642C41.7012 109.451 41.0485 109.246 40.2272 109.026C39.2152 108.762 38.4012 108.498 37.7852 108.234C37.1838 107.97 36.6632 107.559 36.2232 107.002C35.7978 106.43 35.5852 105.667 35.5852 104.714C35.5852 103.878 35.7978 103.137 36.2232 102.492C36.6485 101.847 37.2425 101.348 38.0052 100.996C38.7825 100.644 39.6698 100.468 40.6672 100.468C42.1045 100.468 43.2778 100.827 44.1872 101.546C45.1112 102.265 45.6318 103.218 45.7492 104.406H43.5492C43.4758 103.819 43.1678 103.306 42.6252 102.866C42.0825 102.411 41.3638 102.184 40.4692 102.184C39.6332 102.184 38.9512 102.404 38.4232 102.844C37.8952 103.269 37.6312 103.871 37.6312 104.648C37.6312 105.205 37.7852 105.66 38.0932 106.012C38.4158 106.364 38.8045 106.635 39.2592 106.826C39.7285 107.002 40.3812 107.207 41.2172 107.442C42.2292 107.721 43.0432 107.999 43.6592 108.278C44.2752 108.542 44.8032 108.96 45.2432 109.532C45.6832 110.089 45.9032 110.852 45.9032 111.82C45.9032 112.568 45.7052 113.272 45.3092 113.932C44.9132 114.592 44.3265 115.127 43.5492 115.538C42.7718 115.949 41.8552 116.154 40.7992 116.154ZM59.8493 109.51C59.8493 109.891 59.8273 110.295 59.7833 110.72H50.1473C50.2206 111.908 50.6239 112.839 51.3573 113.514C52.1053 114.174 53.0073 114.504 54.0633 114.504C54.9286 114.504 55.6473 114.306 56.2193 113.91C56.8059 113.499 57.2166 112.957 57.4513 112.282H59.6073C59.2846 113.441 58.6393 114.387 57.6713 115.12C56.7033 115.839 55.5006 116.198 54.0633 116.198C52.9193 116.198 51.8926 115.941 50.9833 115.428C50.0886 114.915 49.3846 114.189 48.8713 113.25C48.3579 112.297 48.1013 111.197 48.1013 109.95C48.1013 108.703 48.3506 107.611 48.8493 106.672C49.3479 105.733 50.0446 105.015 50.9393 104.516C51.8486 104.003 52.8899 103.746 54.0633 103.746C55.2073 103.746 56.2193 103.995 57.0993 104.494C57.9793 104.993 58.6539 105.682 59.1233 106.562C59.6073 107.427 59.8493 108.41 59.8493 109.51ZM57.7813 109.092C57.7813 108.329 57.6126 107.677 57.2753 107.134C56.9379 106.577 56.4759 106.159 55.8893 105.88C55.3173 105.587 54.6793 105.44 53.9753 105.44C52.9633 105.44 52.0979 105.763 51.3793 106.408C50.6753 107.053 50.2719 107.948 50.1693 109.092H57.7813ZM64.4939 105.902C64.8459 105.213 65.3445 104.677 65.9899 104.296C66.6499 103.915 67.4492 103.724 68.3879 103.724V105.792H67.8599C65.6159 105.792 64.4939 107.009 64.4939 109.444V116H62.4919V103.944H64.4939V105.902ZM75.1869 114.152L78.9269 103.944H81.0609L76.3309 116H73.9989L69.2689 103.944H71.4249L75.1869 114.152ZM84.0649 101.986C83.6836 101.986 83.3609 101.854 83.0969 101.59C82.8329 101.326 82.7009 101.003 82.7009 100.622C82.7009 100.241 82.8329 99.918 83.0969 99.654C83.3609 99.39 83.6836 99.258 84.0649 99.258C84.4316 99.258 84.7396 99.39 84.9889 99.654C85.2529 99.918 85.3849 100.241 85.3849 100.622C85.3849 101.003 85.2529 101.326 84.9889 101.59C84.7396 101.854 84.4316 101.986 84.0649 101.986ZM85.0329 103.944V116H83.0309V103.944H85.0329ZM87.697 109.95C87.697 108.703 87.9463 107.618 88.445 106.694C88.9436 105.755 89.633 105.029 90.513 104.516C91.4076 104.003 92.427 103.746 93.571 103.746C95.0523 103.746 96.2696 104.105 97.223 104.824C98.191 105.543 98.829 106.54 99.137 107.816H96.981C96.7756 107.083 96.3723 106.503 95.771 106.078C95.1843 105.653 94.451 105.44 93.571 105.44C92.427 105.44 91.503 105.836 90.799 106.628C90.095 107.405 89.743 108.513 89.743 109.95C89.743 111.402 90.095 112.524 90.799 113.316C91.503 114.108 92.427 114.504 93.571 114.504C94.451 114.504 95.1843 114.299 95.771 113.888C96.3576 113.477 96.761 112.891 96.981 112.128H99.137C98.8143 113.36 98.169 114.35 97.201 115.098C96.233 115.831 95.023 116.198 93.571 116.198C92.427 116.198 91.4076 115.941 90.513 115.428C89.633 114.915 88.9436 114.189 88.445 113.25C87.9463 112.311 87.697 111.211 87.697 109.95ZM112.808 109.51C112.808 109.891 112.786 110.295 112.742 110.72H103.106C103.18 111.908 103.583 112.839 104.316 113.514C105.064 114.174 105.966 114.504 107.022 114.504C107.888 114.504 108.606 114.306 109.178 113.91C109.765 113.499 110.176 112.957 110.41 112.282H112.566C112.244 113.441 111.598 114.387 110.63 115.12C109.662 115.839 108.46 116.198 107.022 116.198C105.878 116.198 104.852 115.941 103.942 115.428C103.048 114.915 102.344 114.189 101.83 113.25C101.317 112.297 101.06 111.197 101.06 109.95C101.06 108.703 101.31 107.611 101.808 106.672C102.307 105.733 103.004 105.015 103.898 104.516C104.808 104.003 105.849 103.746 107.022 103.746C108.166 103.746 109.178 103.995 110.058 104.494C110.938 104.993 111.613 105.682 112.082 106.562C112.566 107.427 112.808 108.41 112.808 109.51ZM110.74 109.092C110.74 108.329 110.572 107.677 110.234 107.134C109.897 106.577 109.435 106.159 108.848 105.88C108.276 105.587 107.638 105.44 106.934 105.44C105.922 105.44 105.057 105.763 104.338 106.408C103.634 107.053 103.231 107.948 103.128 109.092H110.74Z" fill="white"/>
</g>
</g>
<path d="M100.296 65.8481C99.0911 64.6517 97.5868 63.8006 95.9404 63.3837C94.294 62.9669 92.5659 62.9995 90.9364 63.4781L63.6064 36.1481C66.3064 26.7781 54.7564 19.9181 47.8164 26.7881C40.8764 33.6581 47.8164 45.3081 57.1964 42.5981L84.5064 69.9081C82.6264 75.7181 87.4464 82.2281 93.5864 82.0281C101.946 82.1181 106.246 71.7281 100.296 65.8481ZM58.5864 35.1081L56.1364 37.5581C56.0438 37.6526 55.9334 37.7277 55.8115 37.7792C55.6896 37.8307 55.5588 37.8575 55.4264 37.8581C55.4764 37.9481 51.8764 36.9181 51.8164 36.9181C51.6472 36.8737 51.4926 36.7857 51.368 36.6629C51.2434 36.5401 51.1532 36.3867 51.1064 36.2181L50.2064 32.8581C50.1546 32.6835 50.1515 32.4981 50.1973 32.3219C50.2431 32.1457 50.3362 31.9853 50.4664 31.8581L52.9164 29.4081C53.0437 29.2778 53.204 29.1847 53.3803 29.1389C53.5565 29.0931 53.7419 29.0963 53.9164 29.1481L57.2764 30.0481C57.445 30.0948 57.5984 30.185 57.7212 30.3096C57.8441 30.4342 57.9321 30.5888 57.9764 30.7581L58.8764 34.1081C58.9246 34.2853 58.923 34.4724 58.8719 34.6488C58.8207 34.8252 58.722 34.9841 58.5864 35.1081ZM98.3464 74.3481L95.3464 77.3481C95.1602 77.5328 94.9088 77.637 94.6464 77.6381C94.5601 77.6485 94.4728 77.6485 94.3864 77.6381L90.3564 76.4881C90.1879 76.4413 90.0345 76.3511 89.9116 76.2266C89.7888 76.102 89.7008 75.9473 89.6564 75.7781L88.5664 71.7781C88.5146 71.6035 88.5115 71.4181 88.5573 71.2419C88.6031 71.0657 88.6962 70.9053 88.8264 70.7781L91.8264 67.7781C91.9537 67.6478 92.114 67.5548 92.2903 67.5089C92.4665 67.4631 92.6519 67.4663 92.8264 67.5181L96.8264 68.6081C96.9957 68.6525 97.1503 68.7405 97.2749 68.8633C97.3995 68.9861 97.4897 69.1395 97.5364 69.3081L98.6264 73.3681C98.6719 73.5415 98.6699 73.724 98.6207 73.8964C98.5714 74.0689 98.4767 74.2249 98.3464 74.3481Z" fill="white"/>
<path d="M71.8065 60.7181L71.5865 60.3881L66.7065 55.5081C66.6135 55.4144 66.5029 55.34 66.3811 55.2892C66.2592 55.2384 66.1285 55.2123 65.9965 55.2123C65.8645 55.2123 65.7338 55.2384 65.6119 55.2892C65.4901 55.34 65.3795 55.4144 65.2865 55.5081L57.3965 63.3981C48.0565 60.5881 40.9965 72.1181 47.9265 79.1581C54.8565 86.1981 66.4965 79.0281 63.6865 69.6981L71.5865 61.8081C71.7186 61.6634 71.8088 61.4856 71.8476 61.2936C71.8863 61.1016 71.8721 60.9027 71.8065 60.7181ZM59.7065 71.6181L58.6065 75.7281C58.5613 75.8985 58.4718 76.054 58.3471 76.1787C58.2224 76.3034 58.0669 76.3929 57.8965 76.4381L53.7865 77.5381C53.6119 77.5899 53.4265 77.5931 53.2503 77.5473C53.0741 77.5014 52.9137 77.4084 52.7865 77.2781L49.7865 74.2781C49.6562 74.1509 49.5632 73.9905 49.5173 73.8143C49.4715 73.6381 49.4747 73.4527 49.5265 73.2781L50.6265 69.1681C50.6717 68.9977 50.7612 68.8422 50.8859 68.7175C51.0106 68.5928 51.1661 68.5033 51.3365 68.4581L55.4465 67.3581C55.6211 67.3063 55.8065 67.3031 55.9827 67.3489C56.1589 67.3948 56.3193 67.4878 56.4465 67.6181L59.4465 70.6181C59.5768 70.7453 59.6698 70.9057 59.7157 71.0819C59.7615 71.2581 59.7583 71.4435 59.7065 71.6181Z" fill="white"/>
<path d="M76.5363 45.6781L81.4163 50.5581C81.5093 50.6519 81.6199 50.7263 81.7417 50.777C81.8636 50.8278 81.9943 50.8539 82.1263 50.8539C82.2583 50.8539 82.389 50.8278 82.5109 50.777C82.6327 50.7263 82.7433 50.6519 82.8363 50.5581L90.1763 43.1981C97.0563 45.6381 104.376 39.1181 102.806 32.0281C102.756 31.7863 102.617 31.5718 102.418 31.4259C102.218 31.28 101.972 31.2131 101.726 31.2381C101.499 31.2663 101.286 31.3641 101.116 31.5181L97.1163 35.5181L92.7563 34.3481L91.5463 30.0281L95.5463 26.0281C95.645 25.9192 95.72 25.7909 95.7665 25.6515C95.8129 25.5121 95.8299 25.3645 95.8163 25.2181C95.8096 25 95.7316 24.79 95.5944 24.6203C95.4572 24.4506 95.2682 24.3304 95.0563 24.2781C87.9163 22.7381 81.5063 30.0281 83.8963 36.8881L76.5363 44.2581C76.4426 44.3511 76.3682 44.4617 76.3174 44.5836C76.2666 44.7054 76.2405 44.8361 76.2405 44.9681C76.2405 45.1001 76.2666 45.2309 76.3174 45.3527C76.3682 45.4746 76.4426 45.5852 76.5363 45.6781Z" fill="white"/>
<defs>
<filter id="filter0_d_77_113" x="0" y="0" width="148" height="148" filterUnits="userSpaceOnUse" color-interpolation-filters="sRGB">
<feFlood flood-opacity="0" result="BackgroundImageFix"/>
<feColorMatrix in="SourceAlpha" type="matrix" values="0 0 0 0 0 0 0 0 0 0 0 0 0 0 0 0 0 0 127 0" result="hardAlpha"/>
<feOffset dy="4"/>
<feGaussianBlur stdDeviation="2"/>
<feComposite in2="hardAlpha" operator="out"/>
<feColorMatrix type="matrix" values="0 0 0 0 0 0 0 0 0 0 0 0 0 0 0 0 0 0 0.25 0"/>
<feBlend mode="normal" in2="BackgroundImageFix" result="effect1_dropShadow_77_113"/>
<feBlend mode="normal" in="SourceGraphic" in2="effect1_dropShadow_77_113" result="shape"/>
</filter>
<filter id="filter1_d_77_113" x="31.4971" y="99.258" width="85.3113" height="24.94" filterUnits="userSpaceOnUse" color-interpolation-filters="sRGB">
<feFlood flood-opacity="0" result="BackgroundImageFix"/>
<feColorMatrix in="SourceAlpha" type="matrix" values="0 0 0 0 0 0 0 0 0 0 0 0 0 0 0 0 0 0 127 0" result="hardAlpha"/>
<feOffset dy="4"/>
<feGaussianBlur stdDeviation="2"/>
<feComposite in2="hardAlpha" operator="out"/>
<feColorMatrix type="matrix" values="0 0 0 0 0 0 0 0 0 0 0 0 0 0 0 0 0 0 0.25 0"/>
<feBlend mode="normal" in2="BackgroundImageFix" result="effect1_dropShadow_77_113"/>
<feBlend mode="normal" in="SourceGraphic" in2="effect1_dropShadow_77_113" result="shape"/>
</filter>
</defs>
</svg>
