<svg width="148" height="148" viewBox="0 0 148 148" fill="none" xmlns="http://www.w3.org/2000/svg">
<g filter="url(#filter0_d_74_140)">
<rect x="4" width="140" height="140" rx="30" fill="#5664F1"/>
<g filter="url(#filter1_d_74_140)">
<path d="M90.5077 39.2804C87.3358 37.7479 83.9443 36.6342 80.3986 36C79.9631 36.813 79.4544 37.9065 79.1036 38.7763C75.3344 38.191 71.5999 38.191 67.9 38.7763C67.5493 37.9065 67.029 36.813 66.5897 36C63.0401 36.6342 59.6448 37.752 56.4729 39.2885C50.0752 49.2718 48.3409 59.0071 49.2081 68.6042C53.4513 71.8764 57.5636 73.8642 61.6064 75.1649C62.6046 73.7463 63.4949 72.2382 64.2618 70.6488C62.8012 70.0757 61.4022 69.3684 60.0803 68.5473C60.431 68.279 60.774 67.9985 61.1054 67.7099C69.168 71.6041 77.9282 71.6041 85.8944 67.7099C86.2297 67.9985 86.5727 68.279 86.9196 68.5473C85.5938 69.3724 84.1909 70.0797 82.7303 70.6529C83.4972 72.2382 84.3837 73.7503 85.3857 75.1689C89.4324 73.8682 93.5485 71.8805 97.7917 68.6042C98.8092 57.4787 96.0536 47.8328 90.5077 39.2804ZM65.3602 62.7021C62.9399 62.7021 60.9551 60.3688 60.9551 57.5275C60.9551 54.6862 62.8975 52.3489 65.3602 52.3489C67.823 52.3489 69.8078 54.6821 69.7654 57.5275C69.7692 60.3688 67.823 62.7021 65.3602 62.7021ZM81.6396 62.7021C79.2193 62.7021 77.2344 60.3688 77.2344 57.5275C77.2344 54.6862 79.1768 52.3489 81.6396 52.3489C84.1023 52.3489 86.0871 54.6821 86.0447 57.5275C86.0447 60.3688 84.1023 62.7021 81.6396 62.7021Z" fill="white"/>
<path d="M90.5077 39.2804C87.3358 37.7479 83.9443 36.6342 80.3986 36C79.9631 36.813 79.4544 37.9065 79.1036 38.7763C75.3344 38.191 71.5999 38.191 67.9 38.7763C67.5493 37.9065 67.029 36.813 66.5897 36C63.0401 36.6342 59.6448 37.752 56.4729 39.2885C50.0752 49.2718 48.3409 59.0071 49.2081 68.6042C53.4513 71.8764 57.5636 73.8642 61.6064 75.1649C62.6046 73.7463 63.4949 72.2382 64.2618 70.6488C62.8012 70.0757 61.4022 69.3684 60.0803 68.5473C60.431 68.279 60.774 67.9985 61.1054 67.7099C69.168 71.6041 77.9282 71.6041 85.8944 67.7099C86.2297 67.9985 86.5727 68.279 86.9196 68.5473C85.5938 69.3724 84.1909 70.0797 82.7303 70.6529C83.4972 72.2382 84.3837 73.7503 85.3857 75.1689C89.4324 73.8682 93.5485 71.8805 97.7917 68.6042C98.8092 57.4787 96.0536 47.8328 90.5077 39.2804ZM65.3602 62.7021C62.9399 62.7021 60.9551 60.3688 60.9551 57.5275C60.9551 54.6862 62.8975 52.3489 65.3602 52.3489C67.823 52.3489 69.8078 54.6821 69.7654 57.5275C69.7692 60.3688 67.823 62.7021 65.3602 62.7021ZM81.6396 62.7021C79.2193 62.7021 77.2344 60.3688 77.2344 57.5275C77.2344 54.6862 79.1768 52.3489 81.6396 52.3489C84.1023 52.3489 86.0871 54.6821 86.0447 57.5275C86.0447 60.3688 84.1023 62.7021 81.6396 62.7021Z" stroke="white"/>
</g>
<g filter="url(#filter2_d_74_140)">
<path d="M38.9817 100.666C40.6537 100.666 42.0983 100.981 43.3157 101.612C44.5477 102.228 45.4863 103.115 46.1317 104.274C46.7917 105.433 47.1217 106.797 47.1217 108.366C47.1217 109.935 46.7917 111.299 46.1317 112.458C45.4863 113.602 44.5477 114.482 43.3157 115.098C42.0983 115.699 40.6537 116 38.9817 116H34.2077V100.666H38.9817ZM38.9817 114.35C40.9617 114.35 42.4723 113.829 43.5137 112.788C44.555 111.732 45.0757 110.258 45.0757 108.366C45.0757 106.459 44.5477 104.971 43.4917 103.9C42.4503 102.829 40.947 102.294 38.9817 102.294H36.2097V114.35H38.9817ZM50.7964 101.986C50.415 101.986 50.0924 101.854 49.8284 101.59C49.5644 101.326 49.4324 101.003 49.4324 100.622C49.4324 100.241 49.5644 99.918 49.8284 99.654C50.0924 99.39 50.415 99.258 50.7964 99.258C51.163 99.258 51.471 99.39 51.7204 99.654C51.9844 99.918 52.1164 100.241 52.1164 100.622C52.1164 101.003 51.9844 101.326 51.7204 101.59C51.471 101.854 51.163 101.986 50.7964 101.986ZM51.7644 103.944V116H49.7624V103.944H51.7644ZM59.4444 116.198C58.5204 116.198 57.6918 116.044 56.9584 115.736C56.2251 115.413 55.6458 114.973 55.2204 114.416C54.7951 113.844 54.5604 113.191 54.5164 112.458H56.5844C56.6431 113.059 56.9218 113.551 57.4204 113.932C57.9338 114.313 58.6011 114.504 59.4224 114.504C60.1851 114.504 60.7864 114.335 61.2264 113.998C61.6664 113.661 61.8864 113.235 61.8864 112.722C61.8864 112.194 61.6518 111.805 61.1824 111.556C60.7131 111.292 59.9871 111.035 59.0044 110.786C58.1098 110.551 57.3764 110.317 56.8044 110.082C56.2471 109.833 55.7631 109.473 55.3524 109.004C54.9564 108.52 54.7584 107.889 54.7584 107.112C54.7584 106.496 54.9418 105.931 55.3084 105.418C55.6751 104.905 56.1958 104.501 56.8704 104.208C57.5451 103.9 58.3151 103.746 59.1804 103.746C60.5151 103.746 61.5931 104.083 62.4144 104.758C63.2358 105.433 63.6758 106.357 63.7344 107.53H61.7324C61.6884 106.899 61.4318 106.393 60.9624 106.012C60.5078 105.631 59.8918 105.44 59.1144 105.44C58.3958 105.44 57.8238 105.594 57.3984 105.902C56.9731 106.21 56.7604 106.613 56.7604 107.112C56.7604 107.508 56.8851 107.838 57.1344 108.102C57.3984 108.351 57.7211 108.557 58.1024 108.718C58.4984 108.865 59.0411 109.033 59.7304 109.224C60.5958 109.459 61.2998 109.693 61.8424 109.928C62.3851 110.148 62.8471 110.485 63.2284 110.94C63.6244 111.395 63.8298 111.989 63.8444 112.722C63.8444 113.382 63.6611 113.976 63.2944 114.504C62.9278 115.032 62.4071 115.45 61.7324 115.758C61.0724 116.051 60.3098 116.198 59.4444 116.198ZM65.9226 109.95C65.9226 108.703 66.1719 107.618 66.6706 106.694C67.1692 105.755 67.8586 105.029 68.7386 104.516C69.6332 104.003 70.6526 103.746 71.7966 103.746C73.2779 103.746 74.4952 104.105 75.4486 104.824C76.4166 105.543 77.0546 106.54 77.3626 107.816H75.2066C75.0012 107.083 74.5979 106.503 73.9966 106.078C73.4099 105.653 72.6766 105.44 71.7966 105.44C70.6526 105.44 69.7286 105.836 69.0246 106.628C68.3206 107.405 67.9686 108.513 67.9686 109.95C67.9686 111.402 68.3206 112.524 69.0246 113.316C69.7286 114.108 70.6526 114.504 71.7966 114.504C72.6766 114.504 73.4099 114.299 73.9966 113.888C74.5832 113.477 74.9866 112.891 75.2066 112.128H77.3626C77.0399 113.36 76.3946 114.35 75.4266 115.098C74.4586 115.831 73.2486 116.198 71.7966 116.198C70.6526 116.198 69.6332 115.941 68.7386 115.428C67.8586 114.915 67.1692 114.189 66.6706 113.25C66.1719 112.311 65.9226 111.211 65.9226 109.95ZM85.2918 116.198C84.1625 116.198 83.1358 115.941 82.2118 115.428C81.3025 114.915 80.5838 114.189 80.0558 113.25C79.5425 112.297 79.2858 111.197 79.2858 109.95C79.2858 108.718 79.5498 107.633 80.0778 106.694C80.6205 105.741 81.3538 105.015 82.2778 104.516C83.2018 104.003 84.2358 103.746 85.3798 103.746C86.5238 103.746 87.5578 104.003 88.4818 104.516C89.4058 105.015 90.1318 105.733 90.6598 106.672C91.2025 107.611 91.4738 108.703 91.4738 109.95C91.4738 111.197 91.1952 112.297 90.6378 113.25C90.0952 114.189 89.3545 114.915 88.4158 115.428C87.4772 115.941 86.4358 116.198 85.2918 116.198ZM85.2918 114.438C86.0105 114.438 86.6852 114.269 87.3158 113.932C87.9465 113.595 88.4525 113.089 88.8338 112.414C89.2298 111.739 89.4278 110.918 89.4278 109.95C89.4278 108.982 89.2372 108.161 88.8558 107.486C88.4745 106.811 87.9758 106.313 87.3598 105.99C86.7438 105.653 86.0765 105.484 85.3578 105.484C84.6245 105.484 83.9498 105.653 83.3338 105.99C82.7325 106.313 82.2485 106.811 81.8818 107.486C81.5152 108.161 81.3318 108.982 81.3318 109.95C81.3318 110.933 81.5078 111.761 81.8598 112.436C82.2265 113.111 82.7105 113.617 83.3118 113.954C83.9132 114.277 84.5732 114.438 85.2918 114.438ZM96.1081 105.902C96.4601 105.213 96.9588 104.677 97.6041 104.296C98.2641 103.915 99.0634 103.724 100.002 103.724V105.792H99.4741C97.2301 105.792 96.1081 107.009 96.1081 109.444V116H94.1061V103.944H96.1081V105.902ZM101.565 109.928C101.565 108.696 101.814 107.618 102.313 106.694C102.812 105.755 103.494 105.029 104.359 104.516C105.239 104.003 106.222 103.746 107.307 103.746C108.246 103.746 109.118 103.966 109.925 104.406C110.732 104.831 111.348 105.396 111.773 106.1V99.72H113.797V116H111.773V113.734C111.377 114.453 110.79 115.047 110.013 115.516C109.236 115.971 108.326 116.198 107.285 116.198C106.214 116.198 105.239 115.934 104.359 115.406C103.494 114.878 102.812 114.137 102.313 113.184C101.814 112.231 101.565 111.145 101.565 109.928ZM111.773 109.95C111.773 109.041 111.59 108.249 111.223 107.574C110.856 106.899 110.358 106.386 109.727 106.034C109.111 105.667 108.429 105.484 107.681 105.484C106.933 105.484 106.251 105.66 105.635 106.012C105.019 106.364 104.528 106.877 104.161 107.552C103.794 108.227 103.611 109.019 103.611 109.928C103.611 110.852 103.794 111.659 104.161 112.348C104.528 113.023 105.019 113.543 105.635 113.91C106.251 114.262 106.933 114.438 107.681 114.438C108.429 114.438 109.111 114.262 109.727 113.91C110.358 113.543 110.856 113.023 111.223 112.348C111.59 111.659 111.773 110.859 111.773 109.95Z" fill="white"/>
</g>
</g>
<defs>
<filter id="filter0_d_74_140" x="0" y="0" width="148" height="148" filterUnits="userSpaceOnUse" color-interpolation-filters="sRGB">
<feFlood flood-opacity="0" result="BackgroundImageFix"/>
<feColorMatrix in="SourceAlpha" type="matrix" values="0 0 0 0 0 0 0 0 0 0 0 0 0 0 0 0 0 0 127 0" result="hardAlpha"/>
<feOffset dy="4"/>
<feGaussianBlur stdDeviation="2"/>
<feComposite in2="hardAlpha" operator="out"/>
<feColorMatrix type="matrix" values="0 0 0 0 0 0 0 0 0 0 0 0 0 0 0 0 0 0 0.25 0"/>
<feBlend mode="normal" in2="BackgroundImageFix" result="effect1_dropShadow_74_140"/>
<feBlend mode="normal" in="SourceGraphic" in2="effect1_dropShadow_74_140" result="shape"/>
</filter>
<filter id="filter1_d_74_140" x="45" y="36" width="57" height="47.1689" filterUnits="userSpaceOnUse" color-interpolation-filters="sRGB">
<feFlood flood-opacity="0" result="BackgroundImageFix"/>
<feColorMatrix in="SourceAlpha" type="matrix" values="0 0 0 0 0 0 0 0 0 0 0 0 0 0 0 0 0 0 127 0" result="hardAlpha"/>
<feOffset dy="4"/>
<feGaussianBlur stdDeviation="2"/>
<feComposite in2="hardAlpha" operator="out"/>
<feColorMatrix type="matrix" values="0 0 0 0 0 0 0 0 0 0 0 0 0 0 0 0 0 0 0.25 0"/>
<feBlend mode="normal" in2="BackgroundImageFix" result="effect1_dropShadow_74_140"/>
<feBlend mode="normal" in="SourceGraphic" in2="effect1_dropShadow_74_140" result="shape"/>
</filter>
<filter id="filter2_d_74_140" x="30.2076" y="99.258" width="87.5895" height="24.94" filterUnits="userSpaceOnUse" color-interpolation-filters="sRGB">
<feFlood flood-opacity="0" result="BackgroundImageFix"/>
<feColorMatrix in="SourceAlpha" type="matrix" values="0 0 0 0 0 0 0 0 0 0 0 0 0 0 0 0 0 0 127 0" result="hardAlpha"/>
<feOffset dy="4"/>
<feGaussianBlur stdDeviation="2"/>
<feComposite in2="hardAlpha" operator="out"/>
<feColorMatrix type="matrix" values="0 0 0 0 0 0 0 0 0 0 0 0 0 0 0 0 0 0 0.25 0"/>
<feBlend mode="normal" in2="BackgroundImageFix" result="effect1_dropShadow_74_140"/>
<feBlend mode="normal" in="SourceGraphic" in2="effect1_dropShadow_74_140" result="shape"/>
</filter>
</defs>
</svg>
