<svg width="140" height="140" viewBox="0 0 140 140" fill="none" xmlns="http://www.w3.org/2000/svg">
<rect width="140" height="140" rx="30" fill="#FBBC05"/>
<g filter="url(#filter0_d_114_101)">
<path d="M45.9487 105.11C45.5233 104.215 44.9073 103.526 44.1007 103.042C43.294 102.543 42.3553 102.294 41.2847 102.294C40.214 102.294 39.246 102.543 38.3807 103.042C37.53 103.526 36.8553 104.23 36.3567 105.154C35.8727 106.063 35.6307 107.119 35.6307 108.322C35.6307 109.525 35.8727 110.581 36.3567 111.49C36.8553 112.399 37.53 113.103 38.3807 113.602C39.246 114.086 40.214 114.328 41.2847 114.328C42.7807 114.328 44.0127 113.881 44.9807 112.986C45.9487 112.091 46.5133 110.881 46.6747 109.356H40.5587V107.728H48.8087V109.268C48.6913 110.529 48.2953 111.688 47.6207 112.744C46.946 113.785 46.0587 114.614 44.9587 115.23C43.8587 115.831 42.634 116.132 41.2847 116.132C39.862 116.132 38.564 115.802 37.3907 115.142C36.2173 114.467 35.286 113.536 34.5967 112.348C33.922 111.16 33.5847 109.818 33.5847 108.322C33.5847 106.826 33.922 105.484 34.5967 104.296C35.286 103.093 36.2173 102.162 37.3907 101.502C38.564 100.827 39.862 100.49 41.2847 100.49C42.9127 100.49 44.35 100.893 45.5967 101.7C46.858 102.507 47.7747 103.643 48.3467 105.11H45.9487ZM52.4897 101.986C52.1084 101.986 51.7857 101.854 51.5217 101.59C51.2577 101.326 51.1257 101.003 51.1257 100.622C51.1257 100.241 51.2577 99.918 51.5217 99.654C51.7857 99.39 52.1084 99.258 52.4897 99.258C52.8564 99.258 53.1644 99.39 53.4137 99.654C53.6777 99.918 53.8097 100.241 53.8097 100.622C53.8097 101.003 53.6777 101.326 53.4137 101.59C53.1644 101.854 52.8564 101.986 52.4897 101.986ZM53.4577 103.944V116H51.4557V103.944H53.4577ZM59.3118 105.594V112.7C59.3118 113.287 59.4364 113.705 59.6858 113.954C59.9351 114.189 60.3678 114.306 60.9838 114.306H62.4578V116H60.6538C59.5391 116 58.7031 115.743 58.1458 115.23C57.5884 114.717 57.3098 113.873 57.3098 112.7V105.594H55.7478V103.944H57.3098V100.908H59.3118V103.944H62.4578V105.594H59.3118ZM76.6975 100.666V116H74.6955V109.048H66.8855V116H64.8835V100.666H66.8855V107.398H74.6955V100.666H76.6975ZM90.8079 103.944V116H88.8059V114.218C88.4245 114.834 87.8892 115.318 87.1999 115.67C86.5252 116.007 85.7772 116.176 84.9559 116.176C84.0172 116.176 83.1739 115.985 82.4259 115.604C81.6779 115.208 81.0839 114.621 80.6439 113.844C80.2185 113.067 80.0059 112.121 80.0059 111.006V103.944H81.9859V110.742C81.9859 111.93 82.2865 112.847 82.8879 113.492C83.4892 114.123 84.3105 114.438 85.3519 114.438C86.4225 114.438 87.2659 114.108 87.8819 113.448C88.4979 112.788 88.8059 111.827 88.8059 110.566V103.944H90.8079ZM96.1901 106.188C96.6008 105.469 97.2021 104.883 97.9941 104.428C98.7861 103.973 99.6881 103.746 100.7 103.746C101.785 103.746 102.761 104.003 103.626 104.516C104.491 105.029 105.173 105.755 105.672 106.694C106.171 107.618 106.42 108.696 106.42 109.928C106.42 111.145 106.171 112.231 105.672 113.184C105.173 114.137 104.484 114.878 103.604 115.406C102.739 115.934 101.771 116.198 100.7 116.198C99.6588 116.198 98.7421 115.971 97.9501 115.516C97.1728 115.061 96.5861 114.482 96.1901 113.778V116H94.1881V99.72H96.1901V106.188ZM104.374 109.928C104.374 109.019 104.191 108.227 103.824 107.552C103.457 106.877 102.959 106.364 102.328 106.012C101.712 105.66 101.03 105.484 100.282 105.484C99.5488 105.484 98.8668 105.667 98.2361 106.034C97.6201 106.386 97.1215 106.907 96.7401 107.596C96.3735 108.271 96.1901 109.055 96.1901 109.95C96.1901 110.859 96.3735 111.659 96.7401 112.348C97.1215 113.023 97.6201 113.543 98.2361 113.91C98.8668 114.262 99.5488 114.438 100.282 114.438C101.03 114.438 101.712 114.262 102.328 113.91C102.959 113.543 103.457 113.023 103.824 112.348C104.191 111.659 104.374 110.852 104.374 109.928Z" fill="white"/>
</g>
<path d="M70 34C56.748 34 46 44.746 46 58C46 68.604 52.876 77.6 62.414 80.774C63.612 80.996 64 80.252 64 79.62V75.152C57.324 76.604 55.934 72.32 55.934 72.32C54.842 69.546 53.268 68.808 53.268 68.808C51.09 67.318 53.434 67.35 53.434 67.35C55.844 67.518 57.112 69.824 57.112 69.824C59.252 73.492 62.726 72.432 64.096 71.818C64.31 70.268 64.932 69.208 65.62 68.61C60.29 68 54.686 65.942 54.686 56.748C54.686 54.126 55.624 51.986 57.158 50.306C56.91 49.7 56.088 47.258 57.392 43.954C57.392 43.954 59.408 43.31 63.994 46.414C65.908 45.882 67.96 45.616 70 45.606C72.04 45.616 74.094 45.882 76.012 46.414C80.594 43.31 82.606 43.954 82.606 43.954C83.912 47.26 83.09 49.702 82.842 50.306C84.382 51.986 85.312 54.128 85.312 56.748C85.312 65.966 79.698 67.996 74.354 68.59C75.214 69.334 76 70.794 76 73.034V79.62C76 80.258 76.384 81.008 77.602 80.772C87.132 77.594 94 68.6 94 58C94 44.746 83.254 34 70 34Z" fill="white"/>
<defs>
<filter id="filter0_d_114_101" x="29.5847" y="99.258" width="80.8354" height="24.94" filterUnits="userSpaceOnUse" color-interpolation-filters="sRGB">
<feFlood flood-opacity="0" result="BackgroundImageFix"/>
<feColorMatrix in="SourceAlpha" type="matrix" values="0 0 0 0 0 0 0 0 0 0 0 0 0 0 0 0 0 0 127 0" result="hardAlpha"/>
<feOffset dy="4"/>
<feGaussianBlur stdDeviation="2"/>
<feComposite in2="hardAlpha" operator="out"/>
<feColorMatrix type="matrix" values="0 0 0 0 0 0 0 0 0 0 0 0 0 0 0 0 0 0 0.25 0"/>
<feBlend mode="normal" in2="BackgroundImageFix" result="effect1_dropShadow_114_101"/>
<feBlend mode="normal" in="SourceGraphic" in2="effect1_dropShadow_114_101" result="shape"/>
</filter>
</defs>
</svg>
