<svg width="140" height="140" viewBox="0 0 140 140" fill="none" xmlns="http://www.w3.org/2000/svg">
<rect width="140" height="140" rx="30" fill="#0F9D58"/>
<g filter="url(#filter0_d_120_133)">
<path d="M34.9272 105.11C34.5019 104.215 33.8859 103.526 33.0792 103.042C32.2725 102.543 31.3339 102.294 30.2632 102.294C29.1925 102.294 28.2245 102.543 27.3592 103.042C26.5085 103.526 25.8339 104.23 25.3352 105.154C24.8512 106.063 24.6092 107.119 24.6092 108.322C24.6092 109.525 24.8512 110.581 25.3352 111.49C25.8339 112.399 26.5085 113.103 27.3592 113.602C28.2245 114.086 29.1925 114.328 30.2632 114.328C31.7592 114.328 32.9912 113.881 33.9592 112.986C34.9272 112.091 35.4919 110.881 35.6532 109.356H29.5372V107.728H37.7872V109.268C37.6699 110.529 37.2739 111.688 36.5992 112.744C35.9245 113.785 35.0372 114.614 33.9372 115.23C32.8372 115.831 31.6125 116.132 30.2632 116.132C28.8405 116.132 27.5425 115.802 26.3692 115.142C25.1959 114.467 24.2645 113.536 23.5752 112.348C22.9005 111.16 22.5632 109.818 22.5632 108.322C22.5632 106.826 22.9005 105.484 23.5752 104.296C24.2645 103.093 25.1959 102.162 26.3692 101.502C27.5425 100.827 28.8405 100.49 30.2632 100.49C31.8912 100.49 33.3285 100.893 34.5752 101.7C35.8365 102.507 36.7532 103.643 37.3252 105.11H34.9272ZM51.1615 116.154C50.1495 116.154 49.2401 115.978 48.4335 115.626C47.6415 115.259 47.0181 114.761 46.5635 114.13C46.1088 113.485 45.8741 112.744 45.8595 111.908H47.9935C48.0668 112.627 48.3601 113.235 48.8735 113.734C49.4015 114.218 50.1641 114.46 51.1615 114.46C52.1148 114.46 52.8628 114.225 53.4055 113.756C53.9628 113.272 54.2415 112.656 54.2415 111.908C54.2415 111.321 54.0801 110.845 53.7575 110.478C53.4348 110.111 53.0315 109.833 52.5475 109.642C52.0635 109.451 51.4108 109.246 50.5895 109.026C49.5775 108.762 48.7635 108.498 48.1475 108.234C47.5461 107.97 47.0255 107.559 46.5855 107.002C46.1601 106.43 45.9475 105.667 45.9475 104.714C45.9475 103.878 46.1601 103.137 46.5855 102.492C47.0108 101.847 47.6048 101.348 48.3675 100.996C49.1448 100.644 50.0321 100.468 51.0295 100.468C52.4668 100.468 53.6401 100.827 54.5495 101.546C55.4735 102.265 55.9941 103.218 56.1115 104.406H53.9115C53.8381 103.819 53.5301 103.306 52.9875 102.866C52.4448 102.411 51.7261 102.184 50.8315 102.184C49.9955 102.184 49.3135 102.404 48.7855 102.844C48.2575 103.269 47.9935 103.871 47.9935 104.648C47.9935 105.205 48.1475 105.66 48.4555 106.012C48.7781 106.364 49.1668 106.635 49.6215 106.826C50.0908 107.002 50.7435 107.207 51.5795 107.442C52.5915 107.721 53.4055 107.999 54.0215 108.278C54.6375 108.542 55.1655 108.96 55.6055 109.532C56.0455 110.089 56.2655 110.852 56.2655 111.82C56.2655 112.568 56.0675 113.272 55.6715 113.932C55.2755 114.592 54.6888 115.127 53.9115 115.538C53.1341 115.949 52.2175 116.154 51.1615 116.154ZM65.1956 103.724C66.1049 103.724 66.9262 103.922 67.6596 104.318C68.3929 104.699 68.9649 105.279 69.3756 106.056C69.8009 106.833 70.0136 107.779 70.0136 108.894V116H68.0336V109.18C68.0336 107.977 67.7329 107.061 67.1316 106.43C66.5302 105.785 65.7089 105.462 64.6676 105.462C63.6116 105.462 62.7682 105.792 62.1376 106.452C61.5216 107.112 61.2136 108.073 61.2136 109.334V116H59.2116V99.72H61.2136V105.66C61.6096 105.044 62.1522 104.567 62.8416 104.23C63.5456 103.893 64.3302 103.724 65.1956 103.724ZM84.2838 109.51C84.2838 109.891 84.2618 110.295 84.2178 110.72H74.5818C74.6552 111.908 75.0585 112.839 75.7918 113.514C76.5398 114.174 77.4418 114.504 78.4978 114.504C79.3632 114.504 80.0818 114.306 80.6538 113.91C81.2405 113.499 81.6512 112.957 81.8858 112.282H84.0418C83.7192 113.441 83.0738 114.387 82.1058 115.12C81.1378 115.839 79.9352 116.198 78.4978 116.198C77.3538 116.198 76.3272 115.941 75.4178 115.428C74.5232 114.915 73.8192 114.189 73.3058 113.25C72.7925 112.297 72.5358 111.197 72.5358 109.95C72.5358 108.703 72.7852 107.611 73.2838 106.672C73.7825 105.733 74.4792 105.015 75.3738 104.516C76.2832 104.003 77.3245 103.746 78.4978 103.746C79.6418 103.746 80.6538 103.995 81.5338 104.494C82.4138 104.993 83.0885 105.682 83.5578 106.562C84.0418 107.427 84.2838 108.41 84.2838 109.51ZM82.2158 109.092C82.2158 108.329 82.0472 107.677 81.7098 107.134C81.3725 106.577 80.9105 106.159 80.3238 105.88C79.7518 105.587 79.1138 105.44 78.4098 105.44C77.3978 105.44 76.5325 105.763 75.8138 106.408C75.1098 107.053 74.7065 107.948 74.6038 109.092H82.2158ZM97.9264 109.51C97.9264 109.891 97.9044 110.295 97.8604 110.72H88.2244C88.2978 111.908 88.7011 112.839 89.4344 113.514C90.1824 114.174 91.0844 114.504 92.1404 114.504C93.0058 114.504 93.7244 114.306 94.2964 113.91C94.8831 113.499 95.2938 112.957 95.5284 112.282H97.6844C97.3618 113.441 96.7164 114.387 95.7484 115.12C94.7804 115.839 93.5778 116.198 92.1404 116.198C90.9964 116.198 89.9698 115.941 89.0604 115.428C88.1658 114.915 87.4618 114.189 86.9484 113.25C86.4351 112.297 86.1784 111.197 86.1784 109.95C86.1784 108.703 86.4278 107.611 86.9264 106.672C87.4251 105.733 88.1218 105.015 89.0164 104.516C89.9258 104.003 90.9671 103.746 92.1404 103.746C93.2844 103.746 94.2964 103.995 95.1764 104.494C96.0564 104.993 96.7311 105.682 97.2004 106.562C97.6844 107.427 97.9264 108.41 97.9264 109.51ZM95.8584 109.092C95.8584 108.329 95.6898 107.677 95.3524 107.134C95.0151 106.577 94.5531 106.159 93.9664 105.88C93.3944 105.587 92.7564 105.44 92.0524 105.44C91.0404 105.44 90.1751 105.763 89.4564 106.408C88.7524 107.053 88.3491 107.948 88.2464 109.092H95.8584ZM103.011 105.594V112.7C103.011 113.287 103.136 113.705 103.385 113.954C103.634 114.189 104.067 114.306 104.683 114.306H106.157V116H104.353C103.238 116 102.402 115.743 101.845 115.23C101.288 114.717 101.009 113.873 101.009 112.7V105.594H99.447V103.944H101.009V100.908H103.011V103.944H106.157V105.594H103.011ZM112.851 116.198C111.927 116.198 111.098 116.044 110.365 115.736C109.631 115.413 109.052 114.973 108.627 114.416C108.201 113.844 107.967 113.191 107.923 112.458H109.991C110.049 113.059 110.328 113.551 110.827 113.932C111.34 114.313 112.007 114.504 112.829 114.504C113.591 114.504 114.193 114.335 114.633 113.998C115.073 113.661 115.293 113.235 115.293 112.722C115.293 112.194 115.058 111.805 114.589 111.556C114.119 111.292 113.393 111.035 112.411 110.786C111.516 110.551 110.783 110.317 110.211 110.082C109.653 109.833 109.169 109.473 108.759 109.004C108.363 108.52 108.165 107.889 108.165 107.112C108.165 106.496 108.348 105.931 108.715 105.418C109.081 104.905 109.602 104.501 110.277 104.208C110.951 103.9 111.721 103.746 112.587 103.746C113.921 103.746 114.999 104.083 115.821 104.758C116.642 105.433 117.082 106.357 117.141 107.53H115.139C115.095 106.899 114.838 106.393 114.369 106.012C113.914 105.631 113.298 105.44 112.521 105.44C111.802 105.44 111.23 105.594 110.805 105.902C110.379 106.21 110.167 106.613 110.167 107.112C110.167 107.508 110.291 107.838 110.541 108.102C110.805 108.351 111.127 108.557 111.509 108.718C111.905 108.865 112.447 109.033 113.137 109.224C114.002 109.459 114.706 109.693 115.249 109.928C115.791 110.148 116.253 110.485 116.635 110.94C117.031 111.395 117.236 111.989 117.251 112.722C117.251 113.382 117.067 113.976 116.701 114.504C116.334 115.032 115.813 115.45 115.139 115.758C114.479 116.051 113.716 116.198 112.851 116.198Z" fill="white"/>
</g>
<mask id="mask0_120_133" style="mask-type:alpha" maskUnits="userSpaceOnUse" x="49" y="34" width="40" height="52">
<path d="M74 34H52.75C50.6875 34 49 35.5955 49 37.5455V82.4545C49 84.4046 50.6875 86 52.75 86H85.25C87.3125 86 89 84.4046 89 82.4545V48.1818L74 34Z" fill="white"/>
</mask>
<g mask="url(#mask0_120_133)">
<path d="M74 34H52.75C50.6875 34 49 35.5955 49 37.5455V82.4545C49 84.4046 50.6875 86 52.75 86H85.25C87.3125 86 89 84.4046 89 82.4545V48.1818L80.25 42.2727L74 34Z" fill="white"/>
</g>
<mask id="mask1_120_133" style="mask-type:alpha" maskUnits="userSpaceOnUse" x="49" y="33" width="40" height="53">
<path d="M74 33.3182H52.75C50.6875 33.3182 49 34.9136 49 36.8636V81.7727C49 83.7227 50.6875 85.3182 52.75 85.3182H85.25C87.3125 85.3182 89 83.7227 89 81.7727V47.5L74 33.3182Z" fill="white"/>
</mask>
<g mask="url(#mask1_120_133)">
<path d="M59 58V75.1363H79V58H59ZM67.75 72.7727H61.5V69.8182H67.75V72.7727ZM67.75 68.0454H61.5V65.0909H67.75V68.0454ZM67.75 63.3182H61.5V60.3636H67.75V63.3182ZM76.5 72.7727H70.25V69.8182H76.5V72.7727ZM76.5 68.0454H70.25V65.0909H76.5V68.0454ZM76.5 63.3182H70.25V60.3636H76.5V63.3182Z" fill="#0F9D58"/>
<path d="M75.0968 47.1448L88.9999 60.2866V48.1818L75.0968 47.1448Z" fill="url(#paint0_linear_120_133)"/>
</g>
<defs>
<filter id="filter0_d_120_133" x="18.5632" y="99.72" width="102.687" height="24.478" filterUnits="userSpaceOnUse" color-interpolation-filters="sRGB">
<feFlood flood-opacity="0" result="BackgroundImageFix"/>
<feColorMatrix in="SourceAlpha" type="matrix" values="0 0 0 0 0 0 0 0 0 0 0 0 0 0 0 0 0 0 127 0" result="hardAlpha"/>
<feOffset dy="4"/>
<feGaussianBlur stdDeviation="2"/>
<feComposite in2="hardAlpha" operator="out"/>
<feColorMatrix type="matrix" values="0 0 0 0 0 0 0 0 0 0 0 0 0 0 0 0 0 0 0.25 0"/>
<feBlend mode="normal" in2="BackgroundImageFix" result="effect1_dropShadow_120_133"/>
<feBlend mode="normal" in="SourceGraphic" in2="effect1_dropShadow_120_133" result="shape"/>
</filter>
<linearGradient id="paint0_linear_120_133" x1="82.0491" y1="48.2731" x2="82.0491" y2="60.2884" gradientUnits="userSpaceOnUse">
<stop stop-color="#738086" stop-opacity="0"/>
<stop offset="1" stop-color="#263238" stop-opacity="0.02"/>
</linearGradient>
</defs>
</svg>
