<svg width="148" height="148" viewBox="0 0 148 148" fill="none" xmlns="http://www.w3.org/2000/svg">
<g filter="url(#filter0_d_74_141)">
<rect x="4" width="140" height="140" rx="30" fill="#1BD760"/>
<g filter="url(#filter1_d_74_141)">
<path d="M43.098 116.154C42.086 116.154 41.1767 115.978 40.37 115.626C39.578 115.259 38.9547 114.761 38.5 114.13C38.0453 113.485 37.8107 112.744 37.796 111.908H39.93C40.0033 112.627 40.2967 113.235 40.81 113.734C41.338 114.218 42.1007 114.46 43.098 114.46C44.0513 114.46 44.7993 114.225 45.342 113.756C45.8993 113.272 46.178 112.656 46.178 111.908C46.178 111.321 46.0167 110.845 45.694 110.478C45.3713 110.111 44.968 109.833 44.484 109.642C44 109.451 43.3473 109.246 42.526 109.026C41.514 108.762 40.7 108.498 40.084 108.234C39.4827 107.97 38.962 107.559 38.522 107.002C38.0967 106.43 37.884 105.667 37.884 104.714C37.884 103.878 38.0967 103.137 38.522 102.492C38.9473 101.847 39.5413 101.348 40.304 100.996C41.0813 100.644 41.9687 100.468 42.966 100.468C44.4033 100.468 45.5767 100.827 46.486 101.546C47.41 102.265 47.9307 103.218 48.048 104.406H45.848C45.7747 103.819 45.4667 103.306 44.924 102.866C44.3813 102.411 43.6627 102.184 42.768 102.184C41.932 102.184 41.25 102.404 40.722 102.844C40.194 103.269 39.93 103.871 39.93 104.648C39.93 105.205 40.084 105.66 40.392 106.012C40.7147 106.364 41.1033 106.635 41.558 106.826C42.0273 107.002 42.68 107.207 43.516 107.442C44.528 107.721 45.342 107.999 45.958 108.278C46.574 108.542 47.102 108.96 47.542 109.532C47.982 110.089 48.202 110.852 48.202 111.82C48.202 112.568 48.004 113.272 47.608 113.932C47.212 114.592 46.6253 115.127 45.848 115.538C45.0707 115.949 44.154 116.154 43.098 116.154ZM53.1501 106.166C53.5461 105.477 54.1328 104.905 54.9101 104.45C55.7021 103.981 56.6188 103.746 57.6601 103.746C58.7308 103.746 59.6988 104.003 60.5641 104.516C61.4441 105.029 62.1334 105.755 62.6321 106.694C63.1308 107.618 63.3801 108.696 63.3801 109.928C63.3801 111.145 63.1308 112.231 62.6321 113.184C62.1334 114.137 61.4441 114.878 60.5641 115.406C59.6988 115.934 58.7308 116.198 57.6601 116.198C56.6334 116.198 55.7241 115.971 54.9321 115.516C54.1548 115.047 53.5608 114.467 53.1501 113.778V121.72H51.1481V103.944H53.1501V106.166ZM61.3341 109.928C61.3341 109.019 61.1508 108.227 60.7841 107.552C60.4174 106.877 59.9188 106.364 59.2881 106.012C58.6721 105.66 57.9901 105.484 57.2421 105.484C56.5088 105.484 55.8268 105.667 55.1961 106.034C54.5801 106.386 54.0814 106.907 53.7001 107.596C53.3334 108.271 53.1501 109.055 53.1501 109.95C53.1501 110.859 53.3334 111.659 53.7001 112.348C54.0814 113.023 54.5801 113.543 55.1961 113.91C55.8268 114.262 56.5088 114.438 57.2421 114.438C57.9901 114.438 58.6721 114.262 59.2881 113.91C59.9188 113.543 60.4174 113.023 60.7841 112.348C61.1508 111.659 61.3341 110.852 61.3341 109.928ZM71.2733 116.198C70.144 116.198 69.1173 115.941 68.1933 115.428C67.284 114.915 66.5653 114.189 66.0373 113.25C65.524 112.297 65.2673 111.197 65.2673 109.95C65.2673 108.718 65.5313 107.633 66.0593 106.694C66.602 105.741 67.3353 105.015 68.2593 104.516C69.1833 104.003 70.2173 103.746 71.3613 103.746C72.5053 103.746 73.5393 104.003 74.4633 104.516C75.3873 105.015 76.1133 105.733 76.6413 106.672C77.184 107.611 77.4553 108.703 77.4553 109.95C77.4553 111.197 77.1766 112.297 76.6193 113.25C76.0766 114.189 75.336 114.915 74.3973 115.428C73.4586 115.941 72.4173 116.198 71.2733 116.198ZM71.2733 114.438C71.992 114.438 72.6666 114.269 73.2973 113.932C73.928 113.595 74.434 113.089 74.8153 112.414C75.2113 111.739 75.4093 110.918 75.4093 109.95C75.4093 108.982 75.2186 108.161 74.8373 107.486C74.456 106.811 73.9573 106.313 73.3413 105.99C72.7253 105.653 72.058 105.484 71.3393 105.484C70.606 105.484 69.9313 105.653 69.3153 105.99C68.714 106.313 68.23 106.811 67.8633 107.486C67.4966 108.161 67.3133 108.982 67.3133 109.95C67.3133 110.933 67.4893 111.761 67.8413 112.436C68.208 113.111 68.692 113.617 69.2933 113.954C69.8946 114.277 70.5546 114.438 71.2733 114.438ZM82.5296 105.594V112.7C82.5296 113.287 82.6542 113.705 82.9036 113.954C83.1529 114.189 83.5856 114.306 84.2016 114.306H85.6756V116H83.8716C82.7569 116 81.9209 115.743 81.3636 115.23C80.8062 114.717 80.5276 113.873 80.5276 112.7V105.594H78.9656V103.944H80.5276V100.908H82.5296V103.944H85.6756V105.594H82.5296ZM89.1352 101.986C88.7539 101.986 88.4312 101.854 88.1672 101.59C87.9032 101.326 87.7712 101.003 87.7712 100.622C87.7712 100.241 87.9032 99.918 88.1672 99.654C88.4312 99.39 88.7539 99.258 89.1352 99.258C89.5019 99.258 89.8099 99.39 90.0592 99.654C90.3232 99.918 90.4552 100.241 90.4552 100.622C90.4552 101.003 90.3232 101.326 90.0592 101.59C89.8099 101.854 89.5019 101.986 89.1352 101.986ZM90.1032 103.944V116H88.1012V103.944H90.1032ZM98.4213 105.594H95.8913V116H93.8893V105.594H92.3273V103.944H93.8893V103.086C93.8893 101.737 94.234 100.754 94.9233 100.138C95.6273 99.5073 96.7493 99.192 98.2893 99.192V100.864C97.4093 100.864 96.786 101.04 96.4193 101.392C96.0673 101.729 95.8913 102.294 95.8913 103.086V103.944H98.4213V105.594ZM111.14 103.944L103.88 121.676H101.812L104.188 115.868L99.3255 103.944H101.548L105.332 113.712L109.072 103.944H111.14Z" fill="white"/>
</g>
<g filter="url(#filter2_d_74_141)">
<path d="M74.5 31C62.0732 31 52 42.1525 52 55.9107C52 69.669 62.0732 80.8214 74.5 80.8214C86.9268 80.8214 97 69.669 97 55.9107C97 42.1542 86.9268 31.0017 74.5 31ZM84.8188 66.9272C84.415 67.6615 83.5507 67.891 82.8905 67.4439C77.6075 63.8692 70.9565 63.0618 63.1249 65.0421C62.3695 65.2342 61.6172 64.7106 61.4452 63.8743C61.2718 63.038 61.7431 62.2051 62.5 62.0147C71.0701 59.8475 78.4227 60.7807 84.3536 64.7922C85.0138 65.2427 85.2242 66.1963 84.8188 66.9272ZM87.5716 60.1466C87.0635 61.0611 85.9826 61.3467 85.1581 60.7858C79.1121 56.6705 69.891 55.479 62.738 57.8825C61.8106 58.1936 60.8311 57.6139 60.5486 56.5889C60.2692 55.5623 60.7927 54.4795 61.7185 54.1667C69.8895 51.4215 80.0486 52.7508 86.9928 57.4762C87.8188 58.0389 88.0798 59.2338 87.5716 60.1466ZM87.8081 53.0822C80.5553 48.3143 68.5921 47.8757 61.6679 50.2011C60.5563 50.575 59.3802 49.8798 59.044 48.6491C58.7078 47.4185 59.3342 46.1164 60.4473 45.7425C68.3956 43.072 81.607 43.5871 89.956 49.0741C90.9555 49.7319 91.284 51.1614 90.6914 52.2663C90.1003 53.3746 88.806 53.7401 87.8081 53.0822Z" fill="white"/>
</g>
</g>
<defs>
<filter id="filter0_d_74_141" x="0" y="0" width="148" height="148" filterUnits="userSpaceOnUse" color-interpolation-filters="sRGB">
<feFlood flood-opacity="0" result="BackgroundImageFix"/>
<feColorMatrix in="SourceAlpha" type="matrix" values="0 0 0 0 0 0 0 0 0 0 0 0 0 0 0 0 0 0 127 0" result="hardAlpha"/>
<feOffset dy="4"/>
<feGaussianBlur stdDeviation="2"/>
<feComposite in2="hardAlpha" operator="out"/>
<feColorMatrix type="matrix" values="0 0 0 0 0 0 0 0 0 0 0 0 0 0 0 0 0 0 0.25 0"/>
<feBlend mode="normal" in2="BackgroundImageFix" result="effect1_dropShadow_74_141"/>
<feBlend mode="normal" in="SourceGraphic" in2="effect1_dropShadow_74_141" result="shape"/>
</filter>
<filter id="filter1_d_74_141" x="33.796" y="99.192" width="81.3435" height="30.528" filterUnits="userSpaceOnUse" color-interpolation-filters="sRGB">
<feFlood flood-opacity="0" result="BackgroundImageFix"/>
<feColorMatrix in="SourceAlpha" type="matrix" values="0 0 0 0 0 0 0 0 0 0 0 0 0 0 0 0 0 0 127 0" result="hardAlpha"/>
<feOffset dy="4"/>
<feGaussianBlur stdDeviation="2"/>
<feComposite in2="hardAlpha" operator="out"/>
<feColorMatrix type="matrix" values="0 0 0 0 0 0 0 0 0 0 0 0 0 0 0 0 0 0 0.25 0"/>
<feBlend mode="normal" in2="BackgroundImageFix" result="effect1_dropShadow_74_141"/>
<feBlend mode="normal" in="SourceGraphic" in2="effect1_dropShadow_74_141" result="shape"/>
</filter>
<filter id="filter2_d_74_141" x="48" y="31" width="53" height="57.8214" filterUnits="userSpaceOnUse" color-interpolation-filters="sRGB">
<feFlood flood-opacity="0" result="BackgroundImageFix"/>
<feColorMatrix in="SourceAlpha" type="matrix" values="0 0 0 0 0 0 0 0 0 0 0 0 0 0 0 0 0 0 127 0" result="hardAlpha"/>
<feOffset dy="4"/>
<feGaussianBlur stdDeviation="2"/>
<feComposite in2="hardAlpha" operator="out"/>
<feColorMatrix type="matrix" values="0 0 0 0 0 0 0 0 0 0 0 0 0 0 0 0 0 0 0.25 0"/>
<feBlend mode="normal" in2="BackgroundImageFix" result="effect1_dropShadow_74_141"/>
<feBlend mode="normal" in="SourceGraphic" in2="effect1_dropShadow_74_141" result="shape"/>
</filter>
</defs>
</svg>
